<svg width="552" height="112" viewBox="0 0 552 112" fill="none" xmlns="http://www.w3.org/2000/svg">
<path d="M373.068 96H358.908V50.216C358.908 46.912 357.767 45.26 355.486 45.26C352.811 45.26 351.474 46.912 351.474 50.216V96H337.314V51.396C337.314 51.3173 337.314 51.16 337.314 50.924C337.314 49.6653 337.275 48.7213 337.196 48.092C337.117 47.4627 336.803 46.8333 336.252 46.204C335.78 45.5747 334.993 45.26 333.892 45.26C331.217 45.26 329.88 46.912 329.88 50.216V96H315.72V34.876H329.172L329.526 38.534H329.644C331.768 35.466 335.072 33.932 339.556 33.932C341.444 33.932 343.45 34.404 345.574 35.348C347.698 36.292 349.153 37.5507 349.94 39.124H350.058C352.103 35.6627 355.565 33.932 360.442 33.932C364.769 33.932 367.955 35.0333 370 37.236C372.045 39.36 373.068 42.2313 373.068 45.85V96ZM407.813 58.122V49.98C407.813 46.8333 406.476 45.26 403.801 45.26C401.284 45.26 400.025 46.794 400.025 49.862V58.122H407.813ZM421.973 74.76V82.902C421.973 86.9927 420.282 90.3753 416.899 93.05C413.595 95.646 409.19 96.944 403.683 96.944C398.177 96.944 393.811 95.4887 390.585 92.578C387.439 89.6673 385.865 85.9307 385.865 81.368V49.154C385.865 44.0407 387.635 40.2253 391.175 37.708C394.794 35.1907 398.924 33.932 403.565 33.932C407.027 33.932 410.016 34.4433 412.533 35.466C415.129 36.4887 417.057 37.826 418.315 39.478C419.574 41.0513 420.479 42.664 421.029 44.316C421.659 45.8893 421.973 47.4233 421.973 48.918V69.096H400.025V80.306C400.025 82.2727 400.261 83.6887 400.733 84.554C401.205 85.3407 402.228 85.734 403.801 85.734C406.476 85.734 407.813 83.9247 407.813 80.306V74.76H421.973ZM461.147 85.144V96H452.415C448.481 96 445.335 95.0953 442.975 93.286C440.615 91.4767 439.435 89.156 439.435 86.324V46.086H432.001V34.876H439.435V15.76H453.595V34.876H461.383V46.086H453.595V82.076C453.595 83.3347 453.87 84.1607 454.421 84.554C454.971 84.9473 455.955 85.144 457.371 85.144H461.147ZM494.548 58.122V49.98C494.548 46.8333 493.211 45.26 490.536 45.26C488.019 45.26 486.76 46.794 486.76 49.862V58.122H494.548ZM508.708 74.76V82.902C508.708 86.9927 507.017 90.3753 503.634 93.05C500.33 95.646 495.925 96.944 490.418 96.944C484.911 96.944 480.545 95.4887 477.32 92.578C474.173 89.6673 472.6 85.9307 472.6 81.368V49.154C472.6 44.0407 474.37 40.2253 477.91 37.708C481.529 35.1907 485.659 33.932 490.3 33.932C493.761 33.932 496.751 34.4433 499.268 35.466C501.864 36.4887 503.791 37.826 505.05 39.478C506.309 41.0513 507.213 42.664 507.764 44.316C508.393 45.8893 508.708 47.4233 508.708 48.918V69.096H486.76V80.306C486.76 82.2727 486.996 83.6887 487.468 84.554C487.94 85.3407 488.963 85.734 490.536 85.734C493.211 85.734 494.548 83.9247 494.548 80.306V74.76H508.708ZM549.061 34.522V46.676H546.465C539.385 46.676 535.845 49.508 535.845 55.172V96H521.685V34.876H534.783L535.255 39.596H535.373C537.419 37.3147 539.149 35.8987 540.565 35.348C542.06 34.7973 544.892 34.522 549.061 34.522Z" fill="#39A3F2"/>
<path d="M373.068 96V96.5H373.568V96H373.068ZM358.908 96H358.408V96.5H358.908V96ZM351.474 96V96.5H351.974V96H351.474ZM337.314 96H336.814V96.5H337.314V96ZM337.196 48.092L337.692 48.03L337.196 48.092ZM336.252 46.204L335.852 46.504L335.863 46.5191L335.876 46.5332L336.252 46.204ZM329.88 96V96.5H330.38V96H329.88ZM315.72 96H315.22V96.5H315.72V96ZM315.72 34.876V34.376H315.22V34.876H315.72ZM329.172 34.876L329.67 34.8278L329.626 34.376H329.172V34.876ZM329.526 38.534L329.028 38.5822L329.072 39.034H329.526V38.534ZM329.644 38.534V39.034H329.906L330.055 38.8186L329.644 38.534ZM345.574 35.348L345.371 35.8049L345.574 35.348ZM349.94 39.124L349.493 39.3476L349.631 39.624H349.94V39.124ZM350.058 39.124V39.624H350.343L350.488 39.3784L350.058 39.124ZM370 37.236L369.634 37.5763L369.64 37.5828L370 37.236ZM373.068 95.5H358.908V96.5H373.068V95.5ZM359.408 96V50.216H358.408V96H359.408ZM359.408 50.216C359.408 48.5219 359.118 47.1627 358.464 46.2149C357.786 45.2336 356.765 44.76 355.486 44.76V45.76C356.488 45.76 357.178 46.1124 357.641 46.7831C358.127 47.4873 358.408 48.6061 358.408 50.216H359.408ZM355.486 44.76C354.04 44.76 352.876 45.2116 352.088 46.1844C351.317 47.137 350.974 48.5095 350.974 50.216H351.974C351.974 48.6185 352.299 47.513 352.866 46.8136C353.415 46.1344 354.257 45.76 355.486 45.76V44.76ZM350.974 50.216V96H351.974V50.216H350.974ZM351.474 95.5H337.314V96.5H351.474V95.5ZM337.814 96V51.396H336.814V96H337.814ZM337.814 51.396C337.814 51.3958 337.814 51.3957 337.814 51.3955C337.814 51.3954 337.814 51.3952 337.814 51.3951C337.814 51.3949 337.814 51.3948 337.814 51.3946C337.814 51.3945 337.814 51.3943 337.814 51.3941C337.814 51.394 337.814 51.3938 337.814 51.3937C337.814 51.3935 337.814 51.3934 337.814 51.3932C337.814 51.393 337.814 51.3929 337.814 51.3927C337.814 51.3926 337.814 51.3924 337.814 51.3923C337.814 51.3921 337.814 51.3919 337.814 51.3918C337.814 51.3916 337.814 51.3915 337.814 51.3913C337.814 51.3911 337.814 51.391 337.814 51.3908C337.814 51.3907 337.814 51.3905 337.814 51.3903C337.814 51.3902 337.814 51.39 337.814 51.3899C337.814 51.3897 337.814 51.3895 337.814 51.3894C337.814 51.3892 337.814 51.389 337.814 51.3889C337.814 51.3887 337.814 51.3886 337.814 51.3884C337.814 51.3882 337.814 51.3881 337.814 51.3879C337.814 51.3877 337.814 51.3876 337.814 51.3874C337.814 51.3872 337.814 51.3871 337.814 51.3869C337.814 51.3867 337.814 51.3866 337.814 51.3864C337.814 51.3863 337.814 51.3861 337.814 51.3859C337.814 51.3858 337.814 51.3856 337.814 51.3854C337.814 51.3853 337.814 51.3851 337.814 51.3849C337.814 51.3848 337.814 51.3846 337.814 51.3844C337.814 51.3842 337.814 51.3841 337.814 51.3839C337.814 51.3837 337.814 51.3836 337.814 51.3834C337.814 51.3832 337.814 51.3831 337.814 51.3829C337.814 51.3827 337.814 51.3826 337.814 51.3824C337.814 51.3822 337.814 51.382 337.814 51.3819C337.814 51.3817 337.814 51.3815 337.814 51.3814C337.814 51.3812 337.814 51.381 337.814 51.3808C337.814 51.3807 337.814 51.3805 337.814 51.3803C337.814 51.3802 337.814 51.38 337.814 51.3798C337.814 51.3796 337.814 51.3795 337.814 51.3793C337.814 51.3791 337.814 51.3789 337.814 51.3788C337.814 51.3786 337.814 51.3784 337.814 51.3782C337.814 51.3781 337.814 51.3779 337.814 51.3777C337.814 51.3775 337.814 51.3774 337.814 51.3772C337.814 51.377 337.814 51.3768 337.814 51.3767C337.814 51.3765 337.814 51.3763 337.814 51.3761C337.814 51.3759 337.814 51.3758 337.814 51.3756C337.814 51.3754 337.814 51.3752 337.814 51.375C337.814 51.3749 337.814 51.3747 337.814 51.3745C337.814 51.3743 337.814 51.3742 337.814 51.374C337.814 51.3738 337.814 51.3736 337.814 51.3734C337.814 51.3733 337.814 51.3731 337.814 51.3729C337.814 51.3727 337.814 51.3725 337.814 51.3723C337.814 51.3722 337.814 51.372 337.814 51.3718C337.814 51.3716 337.814 51.3714 337.814 51.3713C337.814 51.3711 337.814 51.3709 337.814 51.3707C337.814 51.3705 337.814 51.3703 337.814 51.3701C337.814 51.37 337.814 51.3698 337.814 51.3696C337.814 51.3694 337.814 51.3692 337.814 51.369C337.814 51.3689 337.814 51.3687 337.814 51.3685C337.814 51.3683 337.814 51.3681 337.814 51.3679C337.814 51.3677 337.814 51.3675 337.814 51.3674C337.814 51.3672 337.814 51.367 337.814 51.3668C337.814 51.3666 337.814 51.3664 337.814 51.3662C337.814 51.366 337.814 51.3659 337.814 51.3657C337.814 51.3655 337.814 51.3653 337.814 51.3651C337.814 51.3649 337.814 51.3647 337.814 51.3645C337.814 51.3643 337.814 51.3642 337.814 51.364C337.814 51.3638 337.814 51.3636 337.814 51.3634C337.814 51.3632 337.814 51.363 337.814 51.3628C337.814 51.3626 337.814 51.3624 337.814 51.3622C337.814 51.362 337.814 51.3618 337.814 51.3617C337.814 51.3615 337.814 51.3613 337.814 51.3611C337.814 51.3609 337.814 51.3607 337.814 51.3605C337.814 51.3603 337.814 51.3601 337.814 51.3599C337.814 51.3597 337.814 51.3595 337.814 51.3593C337.814 51.3591 337.814 51.3589 337.814 51.3587C337.814 51.3585 337.814 51.3583 337.814 51.3581C337.814 51.3579 337.814 51.3577 337.814 51.3576C337.814 51.3574 337.814 51.3572 337.814 51.357C337.814 51.3568 337.814 51.3566 337.814 51.3564C337.814 51.3562 337.814 51.356 337.814 51.3558C337.814 51.3556 337.814 51.3554 337.814 51.3552C337.814 51.355 337.814 51.3548 337.814 51.3546C337.814 51.3544 337.814 51.3542 337.814 51.354C337.814 51.3538 337.814 51.3536 337.814 51.3534C337.814 51.3532 337.814 51.353 337.814 51.3528C337.814 51.3526 337.814 51.3524 337.814 51.3521C337.814 51.3519 337.814 51.3517 337.814 51.3515C337.814 51.3513 337.814 51.3511 337.814 51.3509C337.814 51.3507 337.814 51.3505 337.814 51.3503C337.814 51.3501 337.814 51.3499 337.814 51.3497C337.814 51.3495 337.814 51.3493 337.814 51.3491C337.814 51.3489 337.814 51.3487 337.814 51.3485C337.814 51.3483 337.814 51.348 337.814 51.3478C337.814 51.3476 337.814 51.3474 337.814 51.3472C337.814 51.347 337.814 51.3468 337.814 51.3466C337.814 51.3464 337.814 51.3462 337.814 51.346C337.814 51.3458 337.814 51.3456 337.814 51.3453C337.814 51.3451 337.814 51.3449 337.814 51.3447C337.814 51.3445 337.814 51.3443 337.814 51.3441C337.814 51.3439 337.814 51.3437 337.814 51.3435C337.814 51.3432 337.814 51.343 337.814 51.3428C337.814 51.3426 337.814 51.3424 337.814 51.3422C337.814 51.342 337.814 51.3418 337.814 51.3415C337.814 51.3413 337.814 51.3411 337.814 51.3409C337.814 51.3407 337.814 51.3405 337.814 51.3403C337.814 51.34 337.814 51.3398 337.814 51.3396C337.814 51.3394 337.814 51.3392 337.814 51.339C337.814 51.3388 337.814 51.3385 337.814 51.3383C337.814 51.3381 337.814 51.3379 337.814 51.3377C337.814 51.3375 337.814 51.3372 337.814 51.337C337.814 51.3368 337.814 51.3366 337.814 51.3364C337.814 51.3362 337.814 51.3359 337.814 51.3357C337.814 51.3355 337.814 51.3353 337.814 51.3351C337.814 51.3348 337.814 51.3346 337.814 51.3344C337.814 51.3342 337.814 51.334 337.814 51.3337C337.814 51.3335 337.814 51.3333 337.814 51.3331C337.814 51.3329 337.814 51.3326 337.814 51.3324C337.814 51.3322 337.814 51.332 337.814 51.3318C337.814 51.3315 337.814 51.3313 337.814 51.3311C337.814 51.3309 337.814 51.3306 337.814 51.3304C337.814 51.3302 337.814 51.33 337.814 51.3297C337.814 51.3295 337.814 51.3293 337.814 51.3291C337.814 51.3288 337.814 51.3286 337.814 51.3284C337.814 51.3282 337.814 51.3279 337.814 51.3277C337.814 51.3275 337.814 51.3273 337.814 51.327C337.814 51.3268 337.814 51.3266 337.814 51.3264C337.814 51.3261 337.814 51.3259 337.814 51.3257C337.814 51.3255 337.814 51.3252 337.814 51.325C337.814 51.3248 337.814 51.3245 337.814 51.3243C337.814 51.3241 337.814 51.3239 337.814 51.3236C337.814 51.3234 337.814 51.3232 337.814 51.3229C337.814 51.3227 337.814 51.3225 337.814 51.3222C337.814 51.322 337.814 51.3218 337.814 51.3216C337.814 51.3213 337.814 51.3211 337.814 51.3209C337.814 51.3206 337.814 51.3204 337.814 51.3202C337.814 51.3199 337.814 51.3197 337.814 51.3195C337.814 51.3192 337.814 51.319 337.814 51.3188C337.814 51.3185 337.814 51.3183 337.814 51.3181C337.814 51.3178 337.814 51.3176 337.814 51.3174C337.814 51.3171 337.814 51.3169 337.814 51.3167C337.814 51.3164 337.814 51.3162 337.814 51.316C337.814 51.3157 337.814 51.3155 337.814 51.3152C337.814 51.315 337.814 51.3148 337.814 51.3145C337.814 51.3143 337.814 51.3141 337.814 51.3138C337.814 51.3136 337.814 51.3133 337.814 51.3131C337.814 51.3129 337.814 51.3126 337.814 51.3124C337.814 51.3122 337.814 51.3119 337.814 51.3117C337.814 51.3114 337.814 51.3112 337.814 51.311C337.814 51.3107 337.814 51.3105 337.814 51.3102C337.814 51.31 337.814 51.3098 337.814 51.3095C337.814 51.3093 337.814 51.309 337.814 51.3088C337.814 51.3085 337.814 51.3083 337.814 51.3081C337.814 51.3078 337.814 51.3076 337.814 51.3073C337.814 51.3071 337.814 51.3068 337.814 51.3066C337.814 51.3064 337.814 51.3061 337.814 51.3059C337.814 51.3056 337.814 51.3054 337.814 51.3051C337.814 51.3049 337.814 51.3046 337.814 51.3044C337.814 51.3042 337.814 51.3039 337.814 51.3037C337.814 51.3034 337.814 51.3032 337.814 51.3029C337.814 51.3027 337.814 51.3024 337.814 51.3022C337.814 51.3019 337.814 51.3017 337.814 51.3014C337.814 51.3012 337.814 51.3009 337.814 51.3007C337.814 51.3004 337.814 51.3002 337.814 51.2999C337.814 51.2997 337.814 51.2994 337.814 51.2992C337.814 51.299 337.814 51.2987 337.814 51.2985C337.814 51.2982 337.814 51.298 337.814 51.2977C337.814 51.2974 337.814 51.2972 337.814 51.2969C337.814 51.2967 337.814 51.2964 337.814 51.2962C337.814 51.2959 337.814 51.2957 337.814 51.2954C337.814 51.2952 337.814 51.2949 337.814 51.2947C337.814 51.2944 337.814 51.2942 337.814 51.2939C337.814 51.2937 337.814 51.2934 337.814 51.2932C337.814 51.2929 337.814 51.2926 337.814 51.2924C337.814 51.2921 337.814 51.2919 337.814 51.2916C337.814 51.2914 337.814 51.2911 337.814 51.2909C337.814 51.2906 337.814 51.2903 337.814 51.2901C337.814 51.2898 337.814 51.2896 337.814 51.2893C337.814 51.2891 337.814 51.2888 337.814 51.2885C337.814 51.2883 337.814 51.288 337.814 51.2878C337.814 51.2875 337.814 51.2872 337.814 51.287C337.814 51.2867 337.814 51.2865 337.814 51.2862C337.814 51.2859 337.814 51.2857 337.814 51.2854C337.814 51.2852 337.814 51.2849 337.814 51.2846C337.814 51.2844 337.814 51.2841 337.814 51.2839C337.814 51.2836 337.814 51.2833 337.814 51.2831C337.814 51.2828 337.814 51.2826 337.814 51.2823C337.814 51.282 337.814 51.2818 337.814 51.2815C337.814 51.2812 337.814 51.281 337.814 51.2807C337.814 51.2804 337.814 51.2802 337.814 51.2799C337.814 51.2796 337.814 51.2794 337.814 51.2791C337.814 51.2789 337.814 51.2786 337.814 51.2783C337.814 51.2781 337.814 51.2778 337.814 51.2775C337.814 51.2773 337.814 51.277 337.814 51.2767C337.814 51.2765 337.814 51.2762 337.814 51.2759C337.814 51.2757 337.814 51.2754 337.814 51.2751C337.814 51.2748 337.814 51.2746 337.814 51.2743C337.814 51.274 337.814 51.2738 337.814 51.2735C337.814 51.2732 337.814 51.273 337.814 51.2727C337.814 51.2724 337.814 51.2722 337.814 51.2719C337.814 51.2716 337.814 51.2713 337.814 51.2711C337.814 51.2708 337.814 51.2705 337.814 51.2703C337.814 51.27 337.814 51.2697 337.814 51.2694C337.814 51.2692 337.814 51.2689 337.814 51.2686C337.814 51.2683 337.814 51.2681 337.814 51.2678C337.814 51.2675 337.814 51.2673 337.814 51.267C337.814 51.2667 337.814 51.2664 337.814 51.2662C337.814 51.2659 337.814 51.2656 337.814 51.2653C337.814 51.2651 337.814 51.2648 337.814 51.2645C337.814 51.2642 337.814 51.264 337.814 51.2637C337.814 51.2634 337.814 51.2631 337.814 51.2628C337.814 51.2626 337.814 51.2623 337.814 51.262C337.814 51.2617 337.814 51.2615 337.814 51.2612C337.814 51.2609 337.814 51.2606 337.814 51.2603C337.814 51.2601 337.814 51.2598 337.814 51.2595C337.814 51.2592 337.814 51.2589 337.814 51.2587C337.814 51.2584 337.814 51.2581 337.814 51.2578C337.814 51.2575 337.814 51.2573 337.814 51.257C337.814 51.2567 337.814 51.2564 337.814 51.2561C337.814 51.2558 337.814 51.2556 337.814 51.2553C337.814 51.255 337.814 51.2547 337.814 51.2544C337.814 51.2542 337.814 51.2539 337.814 51.2536C337.814 51.2533 337.814 51.253 337.814 51.2527C337.814 51.2524 337.814 51.2522 337.814 51.2519C337.814 51.2516 337.814 51.2513 337.814 51.251C337.814 51.2507 337.814 51.2504 337.814 51.2502C337.814 51.2499 337.814 51.2496 337.814 51.2493C337.814 51.249 337.814 51.2487 337.814 51.2484C337.814 51.2482 337.814 51.2479 337.814 51.2476C337.814 51.2473 337.814 51.247 337.814 51.2467C337.814 51.2464 337.814 51.2461 337.814 51.2458C337.814 51.2456 337.814 51.2453 337.814 51.245C337.814 51.2447 337.814 51.2444 337.814 51.2441C337.814 51.2438 337.814 51.2435 337.814 51.2432C337.814 51.2429 337.814 51.2426 337.814 51.2424C337.814 51.2421 337.814 51.2418 337.814 51.2415C337.814 51.2412 337.814 51.2409 337.814 51.2406C337.814 51.2403 337.814 51.24 337.814 51.2397C337.814 51.2394 337.814 51.2391 337.814 51.2388C337.814 51.2385 337.814 51.2383 337.814 51.238C337.814 51.2377 337.814 51.2374 337.814 51.2371C337.814 51.2368 337.814 51.2365 337.814 51.2362C337.814 51.2359 337.814 51.2356 337.814 51.2353C337.814 51.235 337.814 51.2347 337.814 51.2344C337.814 51.2341 337.814 51.2338 337.814 51.2335C337.814 51.2332 337.814 51.2329 337.814 51.2326C337.814 51.2323 337.814 51.232 337.814 51.2317C337.814 51.2314 337.814 51.2311 337.814 51.2308C337.814 51.2305 337.814 51.2302 337.814 51.2299C337.814 51.2296 337.814 51.2293 337.814 51.229C337.814 51.2287 337.814 51.2284 337.814 51.2281C337.814 51.2278 337.814 51.2275 337.814 51.2272C337.814 51.2269 337.814 51.2266 337.814 51.2263C337.814 51.226 337.814 51.2257 337.814 51.2254C337.814 51.2251 337.814 51.2248 337.814 51.2245C337.814 51.2242 337.814 51.2239 337.814 51.2236C337.814 51.2233 337.814 51.223 337.814 51.2227C337.814 51.2224 337.814 51.2221 337.814 51.2218C337.814 51.2215 337.814 51.2211 337.814 51.2208C337.814 51.2205 337.814 51.2202 337.814 51.2199C337.814 51.2196 337.814 51.2193 337.814 51.219C337.814 51.2187 337.814 51.2184 337.814 51.2181C337.814 51.2178 337.814 51.2175 337.814 51.2172C337.814 51.2168 337.814 51.2165 337.814 51.2162C337.814 51.2159 337.814 51.2156 337.814 51.2153C337.814 51.215 337.814 51.2147 337.814 51.2144C337.814 51.2141 337.814 51.2137 337.814 51.2134C337.814 51.2131 337.814 51.2128 337.814 51.2125C337.814 51.2122 337.814 51.2119 337.814 51.2116C337.814 51.2113 337.814 51.2109 337.814 51.2106C337.814 51.2103 337.814 51.21 337.814 51.2097C337.814 51.2094 337.814 51.2091 337.814 51.2087C337.814 51.2084 337.814 51.2081 337.814 51.2078C337.814 51.2075 337.814 51.2072 337.814 51.2069C337.814 51.2065 337.814 51.2062 337.814 51.2059C337.814 51.2056 337.814 51.2053 337.814 51.205C337.814 51.2047 337.814 51.2043 337.814 51.204C337.814 51.2037 337.814 51.2034 337.814 51.2031C337.814 51.2027 337.814 51.2024 337.814 51.2021C337.814 51.2018 337.814 51.2015 337.814 51.2012C337.814 51.2008 337.814 51.2005 337.814 51.2002C337.814 51.1999 337.814 51.1996 337.814 51.1992C337.814 51.1989 337.814 51.1986 337.814 51.1983C337.814 51.198 337.814 51.1976 337.814 51.1973C337.814 51.197 337.814 51.1967 337.814 51.1964C337.814 51.196 337.814 51.1957 337.814 51.1954C337.814 51.1951 337.814 51.1947 337.814 51.1944C337.814 51.1941 337.814 51.1938 337.814 51.1935C337.814 51.1931 337.814 51.1928 337.814 51.1925C337.814 51.1922 337.814 51.1918 337.814 51.1915C337.814 51.1912 337.814 51.1909 337.814 51.1905C337.814 51.1902 337.814 51.1899 337.814 51.1896C337.814 51.1892 337.814 51.1889 337.814 51.1886C337.814 51.1883 337.814 51.1879 337.814 51.1876C337.814 51.1873 337.814 51.1869 337.814 51.1866C337.814 51.1863 337.814 51.186 337.814 51.1856C337.814 51.1853 337.814 51.185 337.814 51.1846C337.814 51.1843 337.814 51.184 337.814 51.1837C337.814 51.1833 337.814 51.183 337.814 51.1827C337.814 51.1823 337.814 51.182 337.814 51.1817C337.814 51.1813 337.814 51.181 337.814 51.1807C337.814 51.1804 337.814 51.18 337.814 51.1797C337.814 51.1794 337.814 51.179 337.814 51.1787C337.814 51.1784 337.814 51.178 337.814 51.1777C337.814 51.1774 337.814 51.177 337.814 51.1767C337.814 51.1764 337.814 51.176 337.814 51.1757C337.814 51.1754 337.814 51.175 337.814 51.1747C337.814 51.1744 337.814 51.174 337.814 51.1737C337.814 51.1733 337.814 51.173 337.814 51.1727C337.814 51.1723 337.814 51.172 337.814 51.1717C337.814 51.1713 337.814 51.171 337.814 51.1707C337.814 51.1703 337.814 51.17 337.814 51.1696C337.814 51.1693 337.814 51.169 337.814 51.1686C337.814 51.1683 337.814 51.1679 337.814 51.1676C337.814 51.1673 337.814 51.1669 337.814 51.1666C337.814 51.1663 337.814 51.1659 337.814 51.1656C337.814 51.1652 337.814 51.1649 337.814 51.1646C337.814 51.1642 337.814 51.1639 337.814 51.1635C337.814 51.1632 337.814 51.1628 337.814 51.1625C337.814 51.1622 337.814 51.1618 337.814 51.1615C337.814 51.1611 337.814 51.1608 337.814 51.1604C337.814 51.1601 337.814 51.1598 337.814 51.1594C337.814 51.1591 337.814 51.1587 337.814 51.1584C337.814 51.158 337.814 51.1577 337.814 51.1573C337.814 51.157 337.814 51.1567 337.814 51.1563C337.814 51.156 337.814 51.1556 337.814 51.1553C337.814 51.1549 337.814 51.1546 337.814 51.1542C337.814 51.1539 337.814 51.1535 337.814 51.1532C337.814 51.1528 337.814 51.1525 337.814 51.1521C337.814 51.1518 337.814 51.1515 337.814 51.1511C337.814 51.1508 337.814 51.1504 337.814 51.1501C337.814 51.1497 337.814 51.1494 337.814 51.149C337.814 51.1487 337.814 51.1483 337.814 51.148C337.814 51.1476 337.814 51.1473 337.814 51.1469C337.814 51.1466 337.814 51.1462 337.814 51.1458C337.814 51.1455 337.814 51.1451 337.814 51.1448C337.814 51.1444 337.814 51.1441 337.814 51.1437C337.814 51.1434 337.814 51.143 337.814 51.1427C337.814 51.1423 337.814 51.142 337.814 51.1416C337.814 51.1413 337.814 51.1409 337.814 51.1406C337.814 51.1402 337.814 51.1398 337.814 51.1395C337.814 51.1391 337.814 51.1388 337.814 51.1384C337.814 51.1381 337.814 51.1377 337.814 51.1374C337.814 51.137 337.814 51.1366 337.814 51.1363C337.814 51.1359 337.814 51.1356 337.814 51.1352C337.814 51.1348 337.814 51.1345 337.814 51.1341C337.814 51.1338 337.814 51.1334 337.814 51.1331C337.814 51.1327 337.814 51.1323 337.814 51.132C337.814 51.1316 337.814 51.1313 337.814 51.1309C337.814 51.1305 337.814 51.1302 337.814 51.1298C337.814 51.1295 337.814 51.1291 337.814 51.1287C337.814 51.1284 337.814 51.128 337.814 51.1277C337.814 51.1273 337.814 51.1269 337.814 51.1266C337.814 51.1262 337.814 51.1258 337.814 51.1255C337.814 51.1251 337.814 51.1248 337.814 51.1244C337.814 51.124 337.814 51.1237 337.814 51.1233C337.814 51.1229 337.814 51.1226 337.814 51.1222C337.814 51.1218 337.814 51.1215 337.814 51.1211C337.814 51.1207 337.814 51.1204 337.814 51.12C337.814 51.1196 337.814 51.1193 337.814 51.1189C337.814 51.1185 337.814 51.1182 337.814 51.1178C337.814 51.1174 337.814 51.1171 337.814 51.1167C337.814 51.1163 337.814 51.116 337.814 51.1156C337.814 51.1152 337.814 51.1149 337.814 51.1145C337.814 51.1141 337.814 51.1138 337.814 51.1134C337.814 51.113 337.814 51.1126 337.814 51.1123C337.814 51.1119 337.814 51.1115 337.814 51.1112C337.814 51.1108 337.814 51.1104 337.814 51.1101C337.814 51.1097 337.814 51.1093 337.814 51.1089C337.814 51.1086 337.814 51.1082 337.814 51.1078C337.814 51.1074 337.814 51.1071 337.814 51.1067C337.814 51.1063 337.814 51.1059 337.814 51.1056C337.814 51.1052 337.814 51.1048 337.814 51.1045C337.814 51.1041 337.814 51.1037 337.814 51.1033C337.814 51.103 337.814 51.1026 337.814 51.1022C337.814 51.1018 337.814 51.1015 337.814 51.1011C337.814 51.1007 337.814 51.1003 337.814 51.0999C337.814 51.0996 337.814 51.0992 337.814 51.0988C337.814 51.0984 337.814 51.0981 337.814 51.0977C337.814 51.0973 337.814 51.0969 337.814 51.0965C337.814 51.0962 337.814 51.0958 337.814 51.0954C337.814 51.095 337.814 51.0947 337.814 51.0943C337.814 51.0939 337.814 51.0935 337.814 51.0931C337.814 51.0928 337.814 51.0924 337.814 51.092C337.814 51.0916 337.814 51.0912 337.814 51.0908C337.814 51.0905 337.814 51.0901 337.814 51.0897C337.814 51.0893 337.814 51.0889 337.814 51.0885C337.814 51.0882 337.814 51.0878 337.814 51.0874C337.814 51.087 337.814 51.0866 337.814 51.0862C337.814 51.0859 337.814 51.0855 337.814 51.0851C337.814 51.0847 337.814 51.0843 337.814 51.0839C337.814 51.0836 337.814 51.0832 337.814 51.0828C337.814 51.0824 337.814 51.082 337.814 51.0816C337.814 51.0812 337.814 51.0808 337.814 51.0805C337.814 51.0801 337.814 51.0797 337.814 51.0793C337.814 51.0789 337.814 51.0785 337.814 51.0781C337.814 51.0777 337.814 51.0774 337.814 51.077C337.814 51.0766 337.814 51.0762 337.814 51.0758C337.814 51.0754 337.814 51.075 337.814 51.0746C337.814 51.0742 337.814 51.0739 337.814 51.0735C337.814 51.0731 337.814 51.0727 337.814 51.0723C337.814 51.0719 337.814 51.0715 337.814 51.0711C337.814 51.0707 337.814 51.0703 337.814 51.0699C337.814 51.0695 337.814 51.0692 337.814 51.0688C337.814 51.0684 337.814 51.068 337.814 51.0676C337.814 51.0672 337.814 51.0668 337.814 51.0664C337.814 51.066 337.814 51.0656 337.814 51.0652C337.814 51.0648 337.814 51.0644 337.814 51.064C337.814 51.0636 337.814 51.0632 337.814 51.0628C337.814 51.0624 337.814 51.062 337.814 51.0616C337.814 51.0613 337.814 51.0609 337.814 51.0605C337.814 51.0601 337.814 51.0597 337.814 51.0593C337.814 51.0589 337.814 51.0585 337.814 51.0581C337.814 51.0577 337.814 51.0573 337.814 51.0569C337.814 51.0565 337.814 51.0561 337.814 51.0557C337.814 51.0553 337.814 51.0549 337.814 51.0545C337.814 51.0541 337.814 51.0537 337.814 51.0533C337.814 51.0529 337.814 51.0525 337.814 51.0521C337.814 51.0517 337.814 51.0513 337.814 51.0509C337.814 51.0505 337.814 51.0501 337.814 51.0497C337.814 51.0493 337.814 51.0489 337.814 51.0485C337.814 51.048 337.814 51.0476 337.814 51.0472C337.814 51.0468 337.814 51.0464 337.814 51.046C337.814 51.0456 337.814 51.0452 337.814 51.0448C337.814 51.0444 337.814 51.044 337.814 51.0436C337.814 51.0432 337.814 51.0428 337.814 51.0424C337.814 51.042 337.814 51.0416 337.814 51.0412C337.814 51.0408 337.814 51.0403 337.814 51.0399C337.814 51.0395 337.814 51.0391 337.814 51.0387C337.814 51.0383 337.814 51.0379 337.814 51.0375C337.814 51.0371 337.814 51.0367 337.814 51.0363C337.814 51.0359 337.814 51.0354 337.814 51.035C337.814 51.0346 337.814 51.0342 337.814 51.0338C337.814 51.0334 337.814 51.033 337.814 51.0326C337.814 51.0322 337.814 51.0317 337.814 51.0313C337.814 51.0309 337.814 51.0305 337.814 51.0301C337.814 51.0297 337.814 51.0293 337.814 51.0289C337.814 51.0284 337.814 51.028 337.814 51.0276C337.814 51.0272 337.814 51.0268 337.814 51.0264C337.814 51.026 337.814 51.0256 337.814 51.0251C337.814 51.0247 337.814 51.0243 337.814 51.0239C337.814 51.0235 337.814 51.0231 337.814 51.0226C337.814 51.0222 337.814 51.0218 337.814 51.0214C337.814 51.021 337.814 51.0206 337.814 51.0201C337.814 51.0197 337.814 51.0193 337.814 51.0189C337.814 51.0185 337.814 51.0181 337.814 51.0176C337.814 51.0172 337.814 51.0168 337.814 51.0164C337.814 51.016 337.814 51.0155 337.814 51.0151C337.814 51.0147 337.814 51.0143 337.814 51.0139C337.814 51.0134 337.814 51.013 337.814 51.0126C337.814 51.0122 337.814 51.0118 337.814 51.0113C337.814 51.0109 337.814 51.0105 337.814 51.0101C337.814 51.0097 337.814 51.0092 337.814 51.0088C337.814 51.0084 337.814 51.008 337.814 51.0075C337.814 51.0071 337.814 51.0067 337.814 51.0063C337.814 51.0058 337.814 51.0054 337.814 51.005C337.814 51.0046 337.814 51.0042 337.814 51.0037C337.814 51.0033 337.814 51.0029 337.814 51.0024C337.814 51.002 337.814 51.0016 337.814 51.0012C337.814 51.0007 337.814 51.0003 337.814 50.9999C337.814 50.9995 337.814 50.999 337.814 50.9986C337.814 50.9982 337.814 50.9978 337.814 50.9973C337.814 50.9969 337.814 50.9965 337.814 50.996C337.814 50.9956 337.814 50.9952 337.814 50.9948C337.814 50.9943 337.814 50.9939 337.814 50.9935C337.814 50.993 337.814 50.9926 337.814 50.9922C337.814 50.9917 337.814 50.9913 337.814 50.9909C337.814 50.9905 337.814 50.99 337.814 50.9896C337.814 50.9892 337.814 50.9887 337.814 50.9883C337.814 50.9879 337.814 50.9874 337.814 50.987C337.814 50.9866 337.814 50.9861 337.814 50.9857C337.814 50.9853 337.814 50.9848 337.814 50.9844C337.814 50.984 337.814 50.9835 337.814 50.9831C337.814 50.9827 337.814 50.9822 337.814 50.9818C337.814 50.9814 337.814 50.9809 337.814 50.9805C337.814 50.9801 337.814 50.9796 337.814 50.9792C337.814 50.9787 337.814 50.9783 337.814 50.9779C337.814 50.9774 337.814 50.977 337.814 50.9766C337.814 50.9761 337.814 50.9757 337.814 50.9752C337.814 50.9748 337.814 50.9744 337.814 50.9739C337.814 50.9735 337.814 50.973 337.814 50.9726C337.814 50.9722 337.814 50.9717 337.814 50.9713C337.814 50.9709 337.814 50.9704 337.814 50.97C337.814 50.9695 337.814 50.9691 337.814 50.9687C337.814 50.9682 337.814 50.9678 337.814 50.9673C337.814 50.9669 337.814 50.9664 337.814 50.966C337.814 50.9656 337.814 50.9651 337.814 50.9647C337.814 50.9642 337.814 50.9638 337.814 50.9633C337.814 50.9629 337.814 50.9625 337.814 50.962C337.814 50.9616 337.814 50.9611 337.814 50.9607C337.814 50.9602 337.814 50.9598 337.814 50.9593C337.814 50.9589 337.814 50.9585 337.814 50.958C337.814 50.9576 337.814 50.9571 337.814 50.9567C337.814 50.9562 337.814 50.9558 337.814 50.9553C337.814 50.9549 337.814 50.9544 337.814 50.954C337.814 50.9535 337.814 50.9531 337.814 50.9526C337.814 50.9522 337.814 50.9517 337.814 50.9513C337.814 50.9508 337.814 50.9504 337.814 50.9499C337.814 50.9495 337.814 50.949 337.814 50.9486C337.814 50.9481 337.814 50.9477 337.814 50.9472C337.814 50.9468 337.814 50.9463 337.814 50.9459C337.814 50.9454 337.814 50.945 337.814 50.9445C337.814 50.9441 337.814 50.9436 337.814 50.9432C337.814 50.9427 337.814 50.9423 337.814 50.9418C337.814 50.9414 337.814 50.9409 337.814 50.9405C337.814 50.94 337.814 50.9396 337.814 50.9391C337.814 50.9386 337.814 50.9382 337.814 50.9377C337.814 50.9373 337.814 50.9368 337.814 50.9364C337.814 50.9359 337.814 50.9355 337.814 50.935C337.814 50.9345 337.814 50.9341 337.814 50.9336C337.814 50.9332 337.814 50.9327 337.814 50.9323C337.814 50.9318 337.814 50.9313 337.814 50.9309C337.814 50.9304 337.814 50.93 337.814 50.9295C337.814 50.9291 337.814 50.9286 337.814 50.9281C337.814 50.9277 337.814 50.9272 337.814 50.9268C337.814 50.9263 337.814 50.9258 337.814 50.9254C337.814 50.9249 337.814 50.9245 337.814 50.924H336.814C336.814 50.9245 336.814 50.9249 336.814 50.9254C336.814 50.9258 336.814 50.9263 336.814 50.9268C336.814 50.9272 336.814 50.9277 336.814 50.9281C336.814 50.9286 336.814 50.9291 336.814 50.9295C336.814 50.93 336.814 50.9304 336.814 50.9309C336.814 50.9313 336.814 50.9318 336.814 50.9323C336.814 50.9327 336.814 50.9332 336.814 50.9336C336.814 50.9341 336.814 50.9345 336.814 50.935C336.814 50.9355 336.814 50.9359 336.814 50.9364C336.814 50.9368 336.814 50.9373 336.814 50.9377C336.814 50.9382 336.814 50.9386 336.814 50.9391C336.814 50.9396 336.814 50.94 336.814 50.9405C336.814 50.9409 336.814 50.9414 336.814 50.9418C336.814 50.9423 336.814 50.9427 336.814 50.9432C336.814 50.9436 336.814 50.9441 336.814 50.9445C336.814 50.945 336.814 50.9454 336.814 50.9459C336.814 50.9463 336.814 50.9468 336.814 50.9472C336.814 50.9477 336.814 50.9481 336.814 50.9486C336.814 50.949 336.814 50.9495 336.814 50.9499C336.814 50.9504 336.814 50.9508 336.814 50.9513C336.814 50.9517 336.814 50.9522 336.814 50.9526C336.814 50.9531 336.814 50.9535 336.814 50.954C336.814 50.9544 336.814 50.9549 336.814 50.9553C336.814 50.9558 336.814 50.9562 336.814 50.9567C336.814 50.9571 336.814 50.9576 336.814 50.958C336.814 50.9585 336.814 50.9589 336.814 50.9593C336.814 50.9598 336.814 50.9602 336.814 50.9607C336.814 50.9611 336.814 50.9616 336.814 50.962C336.814 50.9625 336.814 50.9629 336.814 50.9633C336.814 50.9638 336.814 50.9642 336.814 50.9647C336.814 50.9651 336.814 50.9656 336.814 50.966C336.814 50.9664 336.814 50.9669 336.814 50.9673C336.814 50.9678 336.814 50.9682 336.814 50.9687C336.814 50.9691 336.814 50.9695 336.814 50.97C336.814 50.9704 336.814 50.9709 336.814 50.9713C336.814 50.9717 336.814 50.9722 336.814 50.9726C336.814 50.973 336.814 50.9735 336.814 50.9739C336.814 50.9744 336.814 50.9748 336.814 50.9752C336.814 50.9757 336.814 50.9761 336.814 50.9766C336.814 50.977 336.814 50.9774 336.814 50.9779C336.814 50.9783 336.814 50.9787 336.814 50.9792C336.814 50.9796 336.814 50.9801 336.814 50.9805C336.814 50.9809 336.814 50.9814 336.814 50.9818C336.814 50.9822 336.814 50.9827 336.814 50.9831C336.814 50.9835 336.814 50.984 336.814 50.9844C336.814 50.9848 336.814 50.9853 336.814 50.9857C336.814 50.9861 336.814 50.9866 336.814 50.987C336.814 50.9874 336.814 50.9879 336.814 50.9883C336.814 50.9887 336.814 50.9892 336.814 50.9896C336.814 50.99 336.814 50.9905 336.814 50.9909C336.814 50.9913 336.814 50.9917 336.814 50.9922C336.814 50.9926 336.814 50.993 336.814 50.9935C336.814 50.9939 336.814 50.9943 336.814 50.9948C336.814 50.9952 336.814 50.9956 336.814 50.996C336.814 50.9965 336.814 50.9969 336.814 50.9973C336.814 50.9978 336.814 50.9982 336.814 50.9986C336.814 50.999 336.814 50.9995 336.814 50.9999C336.814 51.0003 336.814 51.0007 336.814 51.0012C336.814 51.0016 336.814 51.002 336.814 51.0024C336.814 51.0029 336.814 51.0033 336.814 51.0037C336.814 51.0042 336.814 51.0046 336.814 51.005C336.814 51.0054 336.814 51.0058 336.814 51.0063C336.814 51.0067 336.814 51.0071 336.814 51.0075C336.814 51.008 336.814 51.0084 336.814 51.0088C336.814 51.0092 336.814 51.0097 336.814 51.0101C336.814 51.0105 336.814 51.0109 336.814 51.0113C336.814 51.0118 336.814 51.0122 336.814 51.0126C336.814 51.013 336.814 51.0134 336.814 51.0139C336.814 51.0143 336.814 51.0147 336.814 51.0151C336.814 51.0155 336.814 51.016 336.814 51.0164C336.814 51.0168 336.814 51.0172 336.814 51.0176C336.814 51.0181 336.814 51.0185 336.814 51.0189C336.814 51.0193 336.814 51.0197 336.814 51.0201C336.814 51.0206 336.814 51.021 336.814 51.0214C336.814 51.0218 336.814 51.0222 336.814 51.0226C336.814 51.0231 336.814 51.0235 336.814 51.0239C336.814 51.0243 336.814 51.0247 336.814 51.0251C336.814 51.0256 336.814 51.026 336.814 51.0264C336.814 51.0268 336.814 51.0272 336.814 51.0276C336.814 51.028 336.814 51.0284 336.814 51.0289C336.814 51.0293 336.814 51.0297 336.814 51.0301C336.814 51.0305 336.814 51.0309 336.814 51.0313C336.814 51.0317 336.814 51.0322 336.814 51.0326C336.814 51.033 336.814 51.0334 336.814 51.0338C336.814 51.0342 336.814 51.0346 336.814 51.035C336.814 51.0354 336.814 51.0359 336.814 51.0363C336.814 51.0367 336.814 51.0371 336.814 51.0375C336.814 51.0379 336.814 51.0383 336.814 51.0387C336.814 51.0391 336.814 51.0395 336.814 51.0399C336.814 51.0403 336.814 51.0408 336.814 51.0412C336.814 51.0416 336.814 51.042 336.814 51.0424C336.814 51.0428 336.814 51.0432 336.814 51.0436C336.814 51.044 336.814 51.0444 336.814 51.0448C336.814 51.0452 336.814 51.0456 336.814 51.046C336.814 51.0464 336.814 51.0468 336.814 51.0472C336.814 51.0476 336.814 51.048 336.814 51.0485C336.814 51.0489 336.814 51.0493 336.814 51.0497C336.814 51.0501 336.814 51.0505 336.814 51.0509C336.814 51.0513 336.814 51.0517 336.814 51.0521C336.814 51.0525 336.814 51.0529 336.814 51.0533C336.814 51.0537 336.814 51.0541 336.814 51.0545C336.814 51.0549 336.814 51.0553 336.814 51.0557C336.814 51.0561 336.814 51.0565 336.814 51.0569C336.814 51.0573 336.814 51.0577 336.814 51.0581C336.814 51.0585 336.814 51.0589 336.814 51.0593C336.814 51.0597 336.814 51.0601 336.814 51.0605C336.814 51.0609 336.814 51.0613 336.814 51.0616C336.814 51.062 336.814 51.0624 336.814 51.0628C336.814 51.0632 336.814 51.0636 336.814 51.064C336.814 51.0644 336.814 51.0648 336.814 51.0652C336.814 51.0656 336.814 51.066 336.814 51.0664C336.814 51.0668 336.814 51.0672 336.814 51.0676C336.814 51.068 336.814 51.0684 336.814 51.0688C336.814 51.0692 336.814 51.0695 336.814 51.0699C336.814 51.0703 336.814 51.0707 336.814 51.0711C336.814 51.0715 336.814 51.0719 336.814 51.0723C336.814 51.0727 336.814 51.0731 336.814 51.0735C336.814 51.0739 336.814 51.0742 336.814 51.0746C336.814 51.075 336.814 51.0754 336.814 51.0758C336.814 51.0762 336.814 51.0766 336.814 51.077C336.814 51.0774 336.814 51.0777 336.814 51.0781C336.814 51.0785 336.814 51.0789 336.814 51.0793C336.814 51.0797 336.814 51.0801 336.814 51.0805C336.814 51.0808 336.814 51.0812 336.814 51.0816C336.814 51.082 336.814 51.0824 336.814 51.0828C336.814 51.0832 336.814 51.0836 336.814 51.0839C336.814 51.0843 336.814 51.0847 336.814 51.0851C336.814 51.0855 336.814 51.0859 336.814 51.0862C336.814 51.0866 336.814 51.087 336.814 51.0874C336.814 51.0878 336.814 51.0882 336.814 51.0885C336.814 51.0889 336.814 51.0893 336.814 51.0897C336.814 51.0901 336.814 51.0905 336.814 51.0908C336.814 51.0912 336.814 51.0916 336.814 51.092C336.814 51.0924 336.814 51.0928 336.814 51.0931C336.814 51.0935 336.814 51.0939 336.814 51.0943C336.814 51.0947 336.814 51.095 336.814 51.0954C336.814 51.0958 336.814 51.0962 336.814 51.0965C336.814 51.0969 336.814 51.0973 336.814 51.0977C336.814 51.0981 336.814 51.0984 336.814 51.0988C336.814 51.0992 336.814 51.0996 336.814 51.0999C336.814 51.1003 336.814 51.1007 336.814 51.1011C336.814 51.1015 336.814 51.1018 336.814 51.1022C336.814 51.1026 336.814 51.103 336.814 51.1033C336.814 51.1037 336.814 51.1041 336.814 51.1045C336.814 51.1048 336.814 51.1052 336.814 51.1056C336.814 51.1059 336.814 51.1063 336.814 51.1067C336.814 51.1071 336.814 51.1074 336.814 51.1078C336.814 51.1082 336.814 51.1086 336.814 51.1089C336.814 51.1093 336.814 51.1097 336.814 51.1101C336.814 51.1104 336.814 51.1108 336.814 51.1112C336.814 51.1115 336.814 51.1119 336.814 51.1123C336.814 51.1126 336.814 51.113 336.814 51.1134C336.814 51.1138 336.814 51.1141 336.814 51.1145C336.814 51.1149 336.814 51.1152 336.814 51.1156C336.814 51.116 336.814 51.1163 336.814 51.1167C336.814 51.1171 336.814 51.1174 336.814 51.1178C336.814 51.1182 336.814 51.1185 336.814 51.1189C336.814 51.1193 336.814 51.1196 336.814 51.12C336.814 51.1204 336.814 51.1207 336.814 51.1211C336.814 51.1215 336.814 51.1218 336.814 51.1222C336.814 51.1226 336.814 51.1229 336.814 51.1233C336.814 51.1237 336.814 51.124 336.814 51.1244C336.814 51.1248 336.814 51.1251 336.814 51.1255C336.814 51.1258 336.814 51.1262 336.814 51.1266C336.814 51.1269 336.814 51.1273 336.814 51.1277C336.814 51.128 336.814 51.1284 336.814 51.1287C336.814 51.1291 336.814 51.1295 336.814 51.1298C336.814 51.1302 336.814 51.1305 336.814 51.1309C336.814 51.1313 336.814 51.1316 336.814 51.132C336.814 51.1323 336.814 51.1327 336.814 51.1331C336.814 51.1334 336.814 51.1338 336.814 51.1341C336.814 51.1345 336.814 51.1348 336.814 51.1352C336.814 51.1356 336.814 51.1359 336.814 51.1363C336.814 51.1366 336.814 51.137 336.814 51.1374C336.814 51.1377 336.814 51.1381 336.814 51.1384C336.814 51.1388 336.814 51.1391 336.814 51.1395C336.814 51.1398 336.814 51.1402 336.814 51.1406C336.814 51.1409 336.814 51.1413 336.814 51.1416C336.814 51.142 336.814 51.1423 336.814 51.1427C336.814 51.143 336.814 51.1434 336.814 51.1437C336.814 51.1441 336.814 51.1444 336.814 51.1448C336.814 51.1451 336.814 51.1455 336.814 51.1458C336.814 51.1462 336.814 51.1466 336.814 51.1469C336.814 51.1473 336.814 51.1476 336.814 51.148C336.814 51.1483 336.814 51.1487 336.814 51.149C336.814 51.1494 336.814 51.1497 336.814 51.1501C336.814 51.1504 336.814 51.1508 336.814 51.1511C336.814 51.1515 336.814 51.1518 336.814 51.1521C336.814 51.1525 336.814 51.1528 336.814 51.1532C336.814 51.1535 336.814 51.1539 336.814 51.1542C336.814 51.1546 336.814 51.1549 336.814 51.1553C336.814 51.1556 336.814 51.156 336.814 51.1563C336.814 51.1567 336.814 51.157 336.814 51.1573C336.814 51.1577 336.814 51.158 336.814 51.1584C336.814 51.1587 336.814 51.1591 336.814 51.1594C336.814 51.1598 336.814 51.1601 336.814 51.1604C336.814 51.1608 336.814 51.1611 336.814 51.1615C336.814 51.1618 336.814 51.1622 336.814 51.1625C336.814 51.1628 336.814 51.1632 336.814 51.1635C336.814 51.1639 336.814 51.1642 336.814 51.1646C336.814 51.1649 336.814 51.1652 336.814 51.1656C336.814 51.1659 336.814 51.1663 336.814 51.1666C336.814 51.1669 336.814 51.1673 336.814 51.1676C336.814 51.1679 336.814 51.1683 336.814 51.1686C336.814 51.169 336.814 51.1693 336.814 51.1696C336.814 51.17 336.814 51.1703 336.814 51.1707C336.814 51.171 336.814 51.1713 336.814 51.1717C336.814 51.172 336.814 51.1723 336.814 51.1727C336.814 51.173 336.814 51.1733 336.814 51.1737C336.814 51.174 336.814 51.1744 336.814 51.1747C336.814 51.175 336.814 51.1754 336.814 51.1757C336.814 51.176 336.814 51.1764 336.814 51.1767C336.814 51.177 336.814 51.1774 336.814 51.1777C336.814 51.178 336.814 51.1784 336.814 51.1787C336.814 51.179 336.814 51.1794 336.814 51.1797C336.814 51.18 336.814 51.1804 336.814 51.1807C336.814 51.181 336.814 51.1813 336.814 51.1817C336.814 51.182 336.814 51.1823 336.814 51.1827C336.814 51.183 336.814 51.1833 336.814 51.1837C336.814 51.184 336.814 51.1843 336.814 51.1846C336.814 51.185 336.814 51.1853 336.814 51.1856C336.814 51.186 336.814 51.1863 336.814 51.1866C336.814 51.1869 336.814 51.1873 336.814 51.1876C336.814 51.1879 336.814 51.1883 336.814 51.1886C336.814 51.1889 336.814 51.1892 336.814 51.1896C336.814 51.1899 336.814 51.1902 336.814 51.1905C336.814 51.1909 336.814 51.1912 336.814 51.1915C336.814 51.1918 336.814 51.1922 336.814 51.1925C336.814 51.1928 336.814 51.1931 336.814 51.1935C336.814 51.1938 336.814 51.1941 336.814 51.1944C336.814 51.1947 336.814 51.1951 336.814 51.1954C336.814 51.1957 336.814 51.196 336.814 51.1964C336.814 51.1967 336.814 51.197 336.814 51.1973C336.814 51.1976 336.814 51.198 336.814 51.1983C336.814 51.1986 336.814 51.1989 336.814 51.1992C336.814 51.1996 336.814 51.1999 336.814 51.2002C336.814 51.2005 336.814 51.2008 336.814 51.2012C336.814 51.2015 336.814 51.2018 336.814 51.2021C336.814 51.2024 336.814 51.2027 336.814 51.2031C336.814 51.2034 336.814 51.2037 336.814 51.204C336.814 51.2043 336.814 51.2047 336.814 51.205C336.814 51.2053 336.814 51.2056 336.814 51.2059C336.814 51.2062 336.814 51.2065 336.814 51.2069C336.814 51.2072 336.814 51.2075 336.814 51.2078C336.814 51.2081 336.814 51.2084 336.814 51.2087C336.814 51.2091 336.814 51.2094 336.814 51.2097C336.814 51.21 336.814 51.2103 336.814 51.2106C336.814 51.2109 336.814 51.2113 336.814 51.2116C336.814 51.2119 336.814 51.2122 336.814 51.2125C336.814 51.2128 336.814 51.2131 336.814 51.2134C336.814 51.2137 336.814 51.2141 336.814 51.2144C336.814 51.2147 336.814 51.215 336.814 51.2153C336.814 51.2156 336.814 51.2159 336.814 51.2162C336.814 51.2165 336.814 51.2168 336.814 51.2172C336.814 51.2175 336.814 51.2178 336.814 51.2181C336.814 51.2184 336.814 51.2187 336.814 51.219C336.814 51.2193 336.814 51.2196 336.814 51.2199C336.814 51.2202 336.814 51.2205 336.814 51.2208C336.814 51.2211 336.814 51.2215 336.814 51.2218C336.814 51.2221 336.814 51.2224 336.814 51.2227C336.814 51.223 336.814 51.2233 336.814 51.2236C336.814 51.2239 336.814 51.2242 336.814 51.2245C336.814 51.2248 336.814 51.2251 336.814 51.2254C336.814 51.2257 336.814 51.226 336.814 51.2263C336.814 51.2266 336.814 51.2269 336.814 51.2272C336.814 51.2275 336.814 51.2278 336.814 51.2281C336.814 51.2284 336.814 51.2287 336.814 51.229C336.814 51.2293 336.814 51.2296 336.814 51.2299C336.814 51.2302 336.814 51.2305 336.814 51.2308C336.814 51.2311 336.814 51.2314 336.814 51.2317C336.814 51.232 336.814 51.2323 336.814 51.2326C336.814 51.2329 336.814 51.2332 336.814 51.2335C336.814 51.2338 336.814 51.2341 336.814 51.2344C336.814 51.2347 336.814 51.235 336.814 51.2353C336.814 51.2356 336.814 51.2359 336.814 51.2362C336.814 51.2365 336.814 51.2368 336.814 51.2371C336.814 51.2374 336.814 51.2377 336.814 51.238C336.814 51.2383 336.814 51.2385 336.814 51.2388C336.814 51.2391 336.814 51.2394 336.814 51.2397C336.814 51.24 336.814 51.2403 336.814 51.2406C336.814 51.2409 336.814 51.2412 336.814 51.2415C336.814 51.2418 336.814 51.2421 336.814 51.2424C336.814 51.2426 336.814 51.2429 336.814 51.2432C336.814 51.2435 336.814 51.2438 336.814 51.2441C336.814 51.2444 336.814 51.2447 336.814 51.245C336.814 51.2453 336.814 51.2456 336.814 51.2458C336.814 51.2461 336.814 51.2464 336.814 51.2467C336.814 51.247 336.814 51.2473 336.814 51.2476C336.814 51.2479 336.814 51.2482 336.814 51.2484C336.814 51.2487 336.814 51.249 336.814 51.2493C336.814 51.2496 336.814 51.2499 336.814 51.2502C336.814 51.2504 336.814 51.2507 336.814 51.251C336.814 51.2513 336.814 51.2516 336.814 51.2519C336.814 51.2522 336.814 51.2524 336.814 51.2527C336.814 51.253 336.814 51.2533 336.814 51.2536C336.814 51.2539 336.814 51.2542 336.814 51.2544C336.814 51.2547 336.814 51.255 336.814 51.2553C336.814 51.2556 336.814 51.2558 336.814 51.2561C336.814 51.2564 336.814 51.2567 336.814 51.257C336.814 51.2573 336.814 51.2575 336.814 51.2578C336.814 51.2581 336.814 51.2584 336.814 51.2587C336.814 51.2589 336.814 51.2592 336.814 51.2595C336.814 51.2598 336.814 51.2601 336.814 51.2603C336.814 51.2606 336.814 51.2609 336.814 51.2612C336.814 51.2615 336.814 51.2617 336.814 51.262C336.814 51.2623 336.814 51.2626 336.814 51.2628C336.814 51.2631 336.814 51.2634 336.814 51.2637C336.814 51.264 336.814 51.2642 336.814 51.2645C336.814 51.2648 336.814 51.2651 336.814 51.2653C336.814 51.2656 336.814 51.2659 336.814 51.2662C336.814 51.2664 336.814 51.2667 336.814 51.267C336.814 51.2673 336.814 51.2675 336.814 51.2678C336.814 51.2681 336.814 51.2683 336.814 51.2686C336.814 51.2689 336.814 51.2692 336.814 51.2694C336.814 51.2697 336.814 51.27 336.814 51.2703C336.814 51.2705 336.814 51.2708 336.814 51.2711C336.814 51.2713 336.814 51.2716 336.814 51.2719C336.814 51.2722 336.814 51.2724 336.814 51.2727C336.814 51.273 336.814 51.2732 336.814 51.2735C336.814 51.2738 336.814 51.274 336.814 51.2743C336.814 51.2746 336.814 51.2748 336.814 51.2751C336.814 51.2754 336.814 51.2757 336.814 51.2759C336.814 51.2762 336.814 51.2765 336.814 51.2767C336.814 51.277 336.814 51.2773 336.814 51.2775C336.814 51.2778 336.814 51.2781 336.814 51.2783C336.814 51.2786 336.814 51.2789 336.814 51.2791C336.814 51.2794 336.814 51.2796 336.814 51.2799C336.814 51.2802 336.814 51.2804 336.814 51.2807C336.814 51.281 336.814 51.2812 336.814 51.2815C336.814 51.2818 336.814 51.282 336.814 51.2823C336.814 51.2826 336.814 51.2828 336.814 51.2831C336.814 51.2833 336.814 51.2836 336.814 51.2839C336.814 51.2841 336.814 51.2844 336.814 51.2846C336.814 51.2849 336.814 51.2852 336.814 51.2854C336.814 51.2857 336.814 51.2859 336.814 51.2862C336.814 51.2865 336.814 51.2867 336.814 51.287C336.814 51.2872 336.814 51.2875 336.814 51.2878C336.814 51.288 336.814 51.2883 336.814 51.2885C336.814 51.2888 336.814 51.2891 336.814 51.2893C336.814 51.2896 336.814 51.2898 336.814 51.2901C336.814 51.2903 336.814 51.2906 336.814 51.2909C336.814 51.2911 336.814 51.2914 336.814 51.2916C336.814 51.2919 336.814 51.2921 336.814 51.2924C336.814 51.2926 336.814 51.2929 336.814 51.2932C336.814 51.2934 336.814 51.2937 336.814 51.2939C336.814 51.2942 336.814 51.2944 336.814 51.2947C336.814 51.2949 336.814 51.2952 336.814 51.2954C336.814 51.2957 336.814 51.2959 336.814 51.2962C336.814 51.2964 336.814 51.2967 336.814 51.2969C336.814 51.2972 336.814 51.2974 336.814 51.2977C336.814 51.298 336.814 51.2982 336.814 51.2985C336.814 51.2987 336.814 51.299 336.814 51.2992C336.814 51.2994 336.814 51.2997 336.814 51.2999C336.814 51.3002 336.814 51.3004 336.814 51.3007C336.814 51.3009 336.814 51.3012 336.814 51.3014C336.814 51.3017 336.814 51.3019 336.814 51.3022C336.814 51.3024 336.814 51.3027 336.814 51.3029C336.814 51.3032 336.814 51.3034 336.814 51.3037C336.814 51.3039 336.814 51.3042 336.814 51.3044C336.814 51.3046 336.814 51.3049 336.814 51.3051C336.814 51.3054 336.814 51.3056 336.814 51.3059C336.814 51.3061 336.814 51.3064 336.814 51.3066C336.814 51.3068 336.814 51.3071 336.814 51.3073C336.814 51.3076 336.814 51.3078 336.814 51.3081C336.814 51.3083 336.814 51.3085 336.814 51.3088C336.814 51.309 336.814 51.3093 336.814 51.3095C336.814 51.3098 336.814 51.31 336.814 51.3102C336.814 51.3105 336.814 51.3107 336.814 51.311C336.814 51.3112 336.814 51.3114 336.814 51.3117C336.814 51.3119 336.814 51.3122 336.814 51.3124C336.814 51.3126 336.814 51.3129 336.814 51.3131C336.814 51.3133 336.814 51.3136 336.814 51.3138C336.814 51.3141 336.814 51.3143 336.814 51.3145C336.814 51.3148 336.814 51.315 336.814 51.3152C336.814 51.3155 336.814 51.3157 336.814 51.316C336.814 51.3162 336.814 51.3164 336.814 51.3167C336.814 51.3169 336.814 51.3171 336.814 51.3174C336.814 51.3176 336.814 51.3178 336.814 51.3181C336.814 51.3183 336.814 51.3185 336.814 51.3188C336.814 51.319 336.814 51.3192 336.814 51.3195C336.814 51.3197 336.814 51.3199 336.814 51.3202C336.814 51.3204 336.814 51.3206 336.814 51.3209C336.814 51.3211 336.814 51.3213 336.814 51.3216C336.814 51.3218 336.814 51.322 336.814 51.3222C336.814 51.3225 336.814 51.3227 336.814 51.3229C336.814 51.3232 336.814 51.3234 336.814 51.3236C336.814 51.3239 336.814 51.3241 336.814 51.3243C336.814 51.3245 336.814 51.3248 336.814 51.325C336.814 51.3252 336.814 51.3255 336.814 51.3257C336.814 51.3259 336.814 51.3261 336.814 51.3264C336.814 51.3266 336.814 51.3268 336.814 51.327C336.814 51.3273 336.814 51.3275 336.814 51.3277C336.814 51.3279 336.814 51.3282 336.814 51.3284C336.814 51.3286 336.814 51.3288 336.814 51.3291C336.814 51.3293 336.814 51.3295 336.814 51.3297C336.814 51.33 336.814 51.3302 336.814 51.3304C336.814 51.3306 336.814 51.3309 336.814 51.3311C336.814 51.3313 336.814 51.3315 336.814 51.3318C336.814 51.332 336.814 51.3322 336.814 51.3324C336.814 51.3326 336.814 51.3329 336.814 51.3331C336.814 51.3333 336.814 51.3335 336.814 51.3337C336.814 51.334 336.814 51.3342 336.814 51.3344C336.814 51.3346 336.814 51.3348 336.814 51.3351C336.814 51.3353 336.814 51.3355 336.814 51.3357C336.814 51.3359 336.814 51.3362 336.814 51.3364C336.814 51.3366 336.814 51.3368 336.814 51.337C336.814 51.3372 336.814 51.3375 336.814 51.3377C336.814 51.3379 336.814 51.3381 336.814 51.3383C336.814 51.3385 336.814 51.3388 336.814 51.339C336.814 51.3392 336.814 51.3394 336.814 51.3396C336.814 51.3398 336.814 51.34 336.814 51.3403C336.814 51.3405 336.814 51.3407 336.814 51.3409C336.814 51.3411 336.814 51.3413 336.814 51.3415C336.814 51.3418 336.814 51.342 336.814 51.3422C336.814 51.3424 336.814 51.3426 336.814 51.3428C336.814 51.343 336.814 51.3432 336.814 51.3435C336.814 51.3437 336.814 51.3439 336.814 51.3441C336.814 51.3443 336.814 51.3445 336.814 51.3447C336.814 51.3449 336.814 51.3451 336.814 51.3453C336.814 51.3456 336.814 51.3458 336.814 51.346C336.814 51.3462 336.814 51.3464 336.814 51.3466C336.814 51.3468 336.814 51.347 336.814 51.3472C336.814 51.3474 336.814 51.3476 336.814 51.3478C336.814 51.348 336.814 51.3483 336.814 51.3485C336.814 51.3487 336.814 51.3489 336.814 51.3491C336.814 51.3493 336.814 51.3495 336.814 51.3497C336.814 51.3499 336.814 51.3501 336.814 51.3503C336.814 51.3505 336.814 51.3507 336.814 51.3509C336.814 51.3511 336.814 51.3513 336.814 51.3515C336.814 51.3517 336.814 51.3519 336.814 51.3521C336.814 51.3524 336.814 51.3526 336.814 51.3528C336.814 51.353 336.814 51.3532 336.814 51.3534C336.814 51.3536 336.814 51.3538 336.814 51.354C336.814 51.3542 336.814 51.3544 336.814 51.3546C336.814 51.3548 336.814 51.355 336.814 51.3552C336.814 51.3554 336.814 51.3556 336.814 51.3558C336.814 51.356 336.814 51.3562 336.814 51.3564C336.814 51.3566 336.814 51.3568 336.814 51.357C336.814 51.3572 336.814 51.3574 336.814 51.3576C336.814 51.3577 336.814 51.3579 336.814 51.3581C336.814 51.3583 336.814 51.3585 336.814 51.3587C336.814 51.3589 336.814 51.3591 336.814 51.3593C336.814 51.3595 336.814 51.3597 336.814 51.3599C336.814 51.3601 336.814 51.3603 336.814 51.3605C336.814 51.3607 336.814 51.3609 336.814 51.3611C336.814 51.3613 336.814 51.3615 336.814 51.3617C336.814 51.3618 336.814 51.362 336.814 51.3622C336.814 51.3624 336.814 51.3626 336.814 51.3628C336.814 51.363 336.814 51.3632 336.814 51.3634C336.814 51.3636 336.814 51.3638 336.814 51.364C336.814 51.3642 336.814 51.3643 336.814 51.3645C336.814 51.3647 336.814 51.3649 336.814 51.3651C336.814 51.3653 336.814 51.3655 336.814 51.3657C336.814 51.3659 336.814 51.366 336.814 51.3662C336.814 51.3664 336.814 51.3666 336.814 51.3668C336.814 51.367 336.814 51.3672 336.814 51.3674C336.814 51.3675 336.814 51.3677 336.814 51.3679C336.814 51.3681 336.814 51.3683 336.814 51.3685C336.814 51.3687 336.814 51.3689 336.814 51.369C336.814 51.3692 336.814 51.3694 336.814 51.3696C336.814 51.3698 336.814 51.37 336.814 51.3701C336.814 51.3703 336.814 51.3705 336.814 51.3707C336.814 51.3709 336.814 51.3711 336.814 51.3713C336.814 51.3714 336.814 51.3716 336.814 51.3718C336.814 51.372 336.814 51.3722 336.814 51.3723C336.814 51.3725 336.814 51.3727 336.814 51.3729C336.814 51.3731 336.814 51.3733 336.814 51.3734C336.814 51.3736 336.814 51.3738 336.814 51.374C336.814 51.3742 336.814 51.3743 336.814 51.3745C336.814 51.3747 336.814 51.3749 336.814 51.375C336.814 51.3752 336.814 51.3754 336.814 51.3756C336.814 51.3758 336.814 51.3759 336.814 51.3761C336.814 51.3763 336.814 51.3765 336.814 51.3767C336.814 51.3768 336.814 51.377 336.814 51.3772C336.814 51.3774 336.814 51.3775 336.814 51.3777C336.814 51.3779 336.814 51.3781 336.814 51.3782C336.814 51.3784 336.814 51.3786 336.814 51.3788C336.814 51.3789 336.814 51.3791 336.814 51.3793C336.814 51.3795 336.814 51.3796 336.814 51.3798C336.814 51.38 336.814 51.3802 336.814 51.3803C336.814 51.3805 336.814 51.3807 336.814 51.3808C336.814 51.381 336.814 51.3812 336.814 51.3814C336.814 51.3815 336.814 51.3817 336.814 51.3819C336.814 51.382 336.814 51.3822 336.814 51.3824C336.814 51.3826 336.814 51.3827 336.814 51.3829C336.814 51.3831 336.814 51.3832 336.814 51.3834C336.814 51.3836 336.814 51.3837 336.814 51.3839C336.814 51.3841 336.814 51.3842 336.814 51.3844C336.814 51.3846 336.814 51.3848 336.814 51.3849C336.814 51.3851 336.814 51.3853 336.814 51.3854C336.814 51.3856 336.814 51.3858 336.814 51.3859C336.814 51.3861 336.814 51.3863 336.814 51.3864C336.814 51.3866 336.814 51.3867 336.814 51.3869C336.814 51.3871 336.814 51.3872 336.814 51.3874C336.814 51.3876 336.814 51.3877 336.814 51.3879C336.814 51.3881 336.814 51.3882 336.814 51.3884C336.814 51.3886 336.814 51.3887 336.814 51.3889C336.814 51.389 336.814 51.3892 336.814 51.3894C336.814 51.3895 336.814 51.3897 336.814 51.3899C336.814 51.39 336.814 51.3902 336.814 51.3903C336.814 51.3905 336.814 51.3907 336.814 51.3908C336.814 51.391 336.814 51.3911 336.814 51.3913C336.814 51.3915 336.814 51.3916 336.814 51.3918C336.814 51.3919 336.814 51.3921 336.814 51.3923C336.814 51.3924 336.814 51.3926 336.814 51.3927C336.814 51.3929 336.814 51.393 336.814 51.3932C336.814 51.3934 336.814 51.3935 336.814 51.3937C336.814 51.3938 336.814 51.394 336.814 51.3941C336.814 51.3943 336.814 51.3945 336.814 51.3946C336.814 51.3948 336.814 51.3949 336.814 51.3951C336.814 51.3952 336.814 51.3954 336.814 51.3955C336.814 51.3957 336.814 51.3958 336.814 51.396H337.814ZM337.814 50.924C337.814 49.6606 337.775 48.6912 337.692 48.03L336.7 48.154C336.775 48.7514 336.814 49.6701 336.814 50.924H337.814ZM337.692 48.03C337.598 47.2745 337.224 46.5556 336.628 45.8747L335.876 46.5332C336.381 47.111 336.637 47.6508 336.7 48.154L337.692 48.03ZM336.652 45.904C336.052 45.1034 335.084 44.76 333.892 44.76V45.76C334.903 45.76 335.508 46.046 335.852 46.504L336.652 45.904ZM333.892 44.76C332.446 44.76 331.282 45.2116 330.494 46.1844C329.723 47.137 329.38 48.5095 329.38 50.216H330.38C330.38 48.6185 330.705 47.513 331.272 46.8136C331.821 46.1344 332.663 45.76 333.892 45.76V44.76ZM329.38 50.216V96H330.38V50.216H329.38ZM329.88 95.5H315.72V96.5H329.88V95.5ZM316.22 96V34.876H315.22V96H316.22ZM315.72 35.376H329.172V34.376H315.72V35.376ZM328.674 34.9242L329.028 38.5822L330.024 38.4858L329.67 34.8278L328.674 34.9242ZM329.526 39.034H329.644V38.034H329.526V39.034ZM330.055 38.8186C332.066 35.9138 335.198 34.432 339.556 34.432V33.432C334.946 33.432 331.47 35.0182 329.233 38.2494L330.055 38.8186ZM339.556 34.432C341.36 34.432 343.296 34.8829 345.371 35.8049L345.777 34.8911C343.604 33.9251 341.528 33.432 339.556 33.432V34.432ZM345.371 35.8049C347.423 36.7171 348.773 37.9072 349.493 39.3476L350.387 38.9004C349.534 37.1941 347.973 35.8669 345.777 34.8911L345.371 35.8049ZM349.94 39.624H350.058V38.624H349.94V39.624ZM350.488 39.3784C352.423 36.1038 355.697 34.432 360.442 34.432V33.432C355.432 33.432 351.783 35.2215 349.628 38.8696L350.488 39.3784ZM360.442 34.432C364.692 34.432 367.718 35.5134 369.634 37.5762L370.366 36.8958C368.191 34.5532 364.846 33.432 360.442 33.432V34.432ZM369.64 37.5828C371.576 39.5935 372.568 42.3296 372.568 45.85H373.568C373.568 42.133 372.515 39.1265 370.36 36.8892L369.64 37.5828ZM372.568 45.85V96H373.568V45.85H372.568ZM407.813 58.122V58.622H408.313V58.122H407.813ZM400.025 58.122H399.525V58.622H400.025V58.122ZM421.973 74.76H422.473V74.26H421.973V74.76ZM416.899 93.05L417.208 93.4432L417.21 93.4422L416.899 93.05ZM390.585 92.578L390.246 92.9451L390.25 92.9492L390.585 92.578ZM391.175 37.708L390.89 37.2975L390.886 37.3005L391.175 37.708ZM412.533 35.466L412.345 35.9293L412.35 35.9312L412.533 35.466ZM418.315 39.478L417.918 39.7811L417.925 39.7903L418.315 39.478ZM421.029 44.316L420.555 44.4741L420.56 44.488L420.565 44.5017L421.029 44.316ZM421.973 69.096V69.596H422.473V69.096H421.973ZM400.025 69.096V68.596H399.525V69.096H400.025ZM400.733 84.554L400.295 84.7934L400.299 84.8024L400.305 84.8112L400.733 84.554ZM407.813 74.76V74.26H407.313V74.76H407.813ZM408.313 58.122V49.98H407.313V58.122H408.313ZM408.313 49.98C408.313 48.3477 407.968 47.0301 407.191 46.1162C406.401 45.1866 405.239 44.76 403.801 44.76V45.76C405.039 45.76 405.882 46.12 406.429 46.7638C406.99 47.4232 407.313 48.4657 407.313 49.98H408.313ZM403.801 44.76C402.437 44.76 401.332 45.1806 400.583 46.0933C399.85 46.9871 399.525 48.2723 399.525 49.862H400.525C400.525 48.3837 400.831 47.3678 401.356 46.7277C401.866 46.1064 402.649 45.76 403.801 45.76V44.76ZM399.525 49.862V58.122H400.525V49.862H399.525ZM400.025 58.622H407.813V57.622H400.025V58.622ZM421.473 74.76V82.902H422.473V74.76H421.473ZM421.473 82.902C421.473 86.8304 419.86 90.072 416.589 92.6578L417.21 93.4422C420.705 90.6787 422.473 87.1549 422.473 82.902H421.473ZM416.591 92.6568C413.399 95.1647 409.113 96.444 403.683 96.444V97.444C409.267 97.444 413.792 96.1273 417.208 93.4432L416.591 92.6568ZM403.683 96.444C398.266 96.444 394.031 95.0142 390.92 92.2068L390.25 92.9492C393.59 95.9632 398.087 97.444 403.683 97.444V96.444ZM390.925 92.211C387.888 89.4016 386.365 85.8014 386.365 81.368H385.365C385.365 86.06 386.99 89.9331 390.246 92.9451L390.925 92.211ZM386.365 81.368V49.154H385.365V81.368H386.365ZM386.365 49.154C386.365 44.1698 388.082 40.5215 391.465 38.1155L390.886 37.3005C387.189 39.9291 385.365 43.9116 385.365 49.154H386.365ZM391.461 38.1185C394.991 35.6626 399.021 34.432 403.565 34.432V33.432C398.828 33.432 394.597 34.7187 390.89 37.2975L391.461 38.1185ZM403.565 34.432C406.979 34.432 409.902 34.9365 412.345 35.9292L412.722 35.0028C410.131 33.9502 407.074 33.432 403.565 33.432V34.432ZM412.35 35.9312C414.89 36.9315 416.73 38.2225 417.918 39.781L418.713 39.175C417.383 37.4295 415.369 36.0458 412.717 35.0008L412.35 35.9312ZM417.925 39.7903C419.153 41.3247 420.026 42.8861 420.555 44.4741L421.504 44.1579C420.932 42.4419 419.996 40.7779 418.706 39.1656L417.925 39.7903ZM420.565 44.5017C421.174 46.0238 421.473 47.4949 421.473 48.918H422.473C422.473 47.3518 422.144 45.7548 421.494 44.1303L420.565 44.5017ZM421.473 48.918V69.096H422.473V48.918H421.473ZM421.973 68.596H400.025V69.596H421.973V68.596ZM399.525 69.096V80.306H400.525V69.096H399.525ZM399.525 80.306C399.525 82.2886 399.759 83.8121 400.295 84.7934L401.172 84.3146C400.764 83.5652 400.525 82.2567 400.525 80.306H399.525ZM400.305 84.8112C400.918 85.8327 402.18 86.234 403.801 86.234V85.234C402.276 85.234 401.493 84.8486 401.162 84.2968L400.305 84.8112ZM403.801 86.234C405.264 86.234 406.431 85.7314 407.213 84.6742C407.973 83.6453 408.313 82.1623 408.313 80.306H407.313C407.313 82.0684 406.985 83.2994 406.408 84.0798C405.852 84.8319 405.014 85.234 403.801 85.234V86.234ZM408.313 80.306V74.76H407.313V80.306H408.313ZM407.813 75.26H421.973V74.26H407.813V75.26ZM461.147 85.144H461.647V84.644H461.147V85.144ZM461.147 96V96.5H461.647V96H461.147ZM442.975 93.286L442.67 93.6828L442.975 93.286ZM439.435 46.086H439.935V45.586H439.435V46.086ZM432.001 46.086H431.501V46.586H432.001V46.086ZM432.001 34.876V34.376H431.501V34.876H432.001ZM439.435 34.876V35.376H439.935V34.876H439.435ZM439.435 15.76V15.26H438.935V15.76H439.435ZM453.595 15.76H454.095V15.26H453.595V15.76ZM453.595 34.876H453.095V35.376H453.595V34.876ZM461.383 34.876H461.883V34.376H461.383V34.876ZM461.383 46.086V46.586H461.883V46.086H461.383ZM453.595 46.086V45.586H453.095V46.086H453.595ZM454.421 84.554L454.13 84.9609L454.421 84.554ZM460.647 85.144V96H461.647V85.144H460.647ZM461.147 95.5H452.415V96.5H461.147V95.5ZM452.415 95.5C448.556 95.5 445.527 94.6128 443.279 92.8892L442.67 93.6828C445.142 95.5778 448.407 96.5 452.415 96.5V95.5ZM443.279 92.8892C441.035 91.169 439.935 88.9916 439.935 86.324H438.935C438.935 89.3204 440.194 91.7844 442.67 93.6828L443.279 92.8892ZM439.935 86.324V46.086H438.935V86.324H439.935ZM439.435 45.586H432.001V46.586H439.435V45.586ZM432.501 46.086V34.876H431.501V46.086H432.501ZM432.001 35.376H439.435V34.376H432.001V35.376ZM439.935 34.876V15.76H438.935V34.876H439.935ZM439.435 16.26H453.595V15.26H439.435V16.26ZM453.095 15.76V34.876H454.095V15.76H453.095ZM453.595 35.376H461.383V34.376H453.595V35.376ZM460.883 34.876V46.086H461.883V34.876H460.883ZM461.383 45.586H453.595V46.586H461.383V45.586ZM453.095 46.086V82.076H454.095V46.086H453.095ZM453.095 82.076C453.095 83.3643 453.369 84.417 454.13 84.9609L454.711 84.1471C454.371 83.9043 454.095 83.305 454.095 82.076H453.095ZM454.13 84.9609C454.818 85.4525 455.943 85.644 457.371 85.644V84.644C455.966 84.644 455.124 84.4422 454.711 84.1471L454.13 84.9609ZM457.371 85.644H461.147V84.644H457.371V85.644ZM494.548 58.122V58.622H495.048V58.122H494.548ZM486.76 58.122H486.26V58.622H486.76V58.122ZM508.708 74.76H509.208V74.26H508.708V74.76ZM503.634 93.05L503.943 93.4432L503.944 93.4422L503.634 93.05ZM477.32 92.578L476.981 92.9451L476.985 92.9492L477.32 92.578ZM477.91 37.708L477.625 37.2975L477.62 37.3005L477.91 37.708ZM499.268 35.466L499.08 35.9293L499.085 35.9312L499.268 35.466ZM505.05 39.478L504.652 39.7811L504.66 39.7903L505.05 39.478ZM507.764 44.316L507.29 44.4741L507.294 44.488L507.3 44.5017L507.764 44.316ZM508.708 69.096V69.596H509.208V69.096H508.708ZM486.76 69.096V68.596H486.26V69.096H486.76ZM487.468 84.554L487.029 84.7934L487.034 84.8024L487.039 84.8112L487.468 84.554ZM494.548 74.76V74.26H494.048V74.76H494.548ZM495.048 58.122V49.98H494.048V58.122H495.048ZM495.048 49.98C495.048 48.3477 494.703 47.0301 493.926 46.1162C493.136 45.1866 491.974 44.76 490.536 44.76V45.76C491.773 45.76 492.617 46.12 493.164 46.7638C493.725 47.4232 494.048 48.4657 494.048 49.98H495.048ZM490.536 44.76C489.171 44.76 488.066 45.1806 487.318 46.0933C486.584 46.9871 486.26 48.2723 486.26 49.862H487.26C487.26 48.3837 487.565 47.3678 488.091 46.7277C488.6 46.1064 489.383 45.76 490.536 45.76V44.76ZM486.26 49.862V58.122H487.26V49.862H486.26ZM486.76 58.622H494.548V57.622H486.76V58.622ZM508.208 74.76V82.902H509.208V74.76H508.208ZM508.208 82.902C508.208 86.8304 506.594 90.072 503.324 92.6578L503.944 93.4422C507.439 90.6787 509.208 87.1549 509.208 82.902H508.208ZM503.325 92.6568C500.133 95.1647 495.848 96.444 490.418 96.444V97.444C496.002 97.444 500.527 96.1273 503.943 93.4432L503.325 92.6568ZM490.418 96.444C485.001 96.444 480.766 95.0142 477.655 92.2068L476.985 92.9492C480.325 95.9632 484.822 97.444 490.418 97.444V96.444ZM477.66 92.211C474.622 89.4016 473.1 85.8014 473.1 81.368H472.1C472.1 86.06 473.724 89.9331 476.981 92.9451L477.66 92.211ZM473.1 81.368V49.154H472.1V81.368H473.1ZM473.1 49.154C473.1 44.1698 474.816 40.5215 478.2 38.1155L477.62 37.3005C473.924 39.9291 472.1 43.9116 472.1 49.154H473.1ZM478.196 38.1185C481.726 35.6626 485.755 34.432 490.3 34.432V33.432C485.562 33.432 481.332 34.7187 477.625 37.2975L478.196 38.1185ZM490.3 34.432C493.714 34.432 496.636 34.9365 499.08 35.9292L499.456 35.0028C496.865 33.9502 493.809 33.432 490.3 33.432V34.432ZM499.085 35.9312C501.624 36.9315 503.465 38.2225 504.652 39.781L505.448 39.175C504.118 37.4295 502.104 36.0458 499.451 35.0008L499.085 35.9312ZM504.66 39.7903C505.887 41.3247 506.76 42.8861 507.29 44.4741L508.238 44.1579C507.666 42.4419 506.73 40.7779 505.441 39.1656L504.66 39.7903ZM507.3 44.5017C507.909 46.0238 508.208 47.4949 508.208 48.918H509.208C509.208 47.3518 508.878 45.7548 508.228 44.1303L507.3 44.5017ZM508.208 48.918V69.096H509.208V48.918H508.208ZM508.708 68.596H486.76V69.596H508.708V68.596ZM486.26 69.096V80.306H487.26V69.096H486.26ZM486.26 80.306C486.26 82.2886 486.494 83.8121 487.029 84.7934L487.907 84.3146C487.498 83.5652 487.26 82.2567 487.26 80.306H486.26ZM487.039 84.8112C487.652 85.8327 488.915 86.234 490.536 86.234V85.234C489.011 85.234 488.228 84.8486 487.897 84.2968L487.039 84.8112ZM490.536 86.234C491.998 86.234 493.166 85.7314 493.947 84.6742C494.708 83.6453 495.048 82.1623 495.048 80.306H494.048C494.048 82.0684 493.72 83.2994 493.143 84.0798C492.587 84.8319 491.749 85.234 490.536 85.234V86.234ZM495.048 80.306V74.76H494.048V80.306H495.048ZM494.548 75.26H508.708V74.26H494.548V75.26ZM549.061 34.522H549.561V34.022H549.061V34.522ZM549.061 46.676V47.176H549.561V46.676H549.061ZM535.845 96V96.5H536.345V96H535.845ZM521.685 96H521.185V96.5H521.685V96ZM521.685 34.876V34.376H521.185V34.876H521.685ZM534.783 34.876L535.281 34.8262L535.236 34.376H534.783V34.876ZM535.255 39.596L534.758 39.6457L534.803 40.096H535.255V39.596ZM535.373 39.596V40.096H535.597L535.746 39.9298L535.373 39.596ZM540.565 35.348L540.392 34.8788L540.384 34.882L540.565 35.348ZM548.561 34.522V46.676H549.561V34.522H548.561ZM549.061 46.176H546.465V47.176H549.061V46.176ZM546.465 46.176C542.872 46.176 540.084 46.8925 538.188 48.4096C536.27 49.9437 535.345 52.2296 535.345 55.172H536.345C536.345 52.4504 537.19 50.4883 538.813 49.1904C540.456 47.8755 542.979 47.176 546.465 47.176V46.176ZM535.345 55.172V96H536.345V55.172H535.345ZM535.845 95.5H521.685V96.5H535.845V95.5ZM522.185 96V34.876H521.185V96H522.185ZM521.685 35.376H534.783V34.376H521.685V35.376ZM534.286 34.9258L534.758 39.6457L535.753 39.5462L535.281 34.8262L534.286 34.9258ZM535.255 40.096H535.373V39.096H535.255V40.096ZM535.746 39.9298C537.781 37.6591 539.446 36.3196 540.747 35.814L540.384 34.882C538.852 35.4777 537.056 36.9703 535.001 39.2622L535.746 39.9298ZM540.738 35.8172C542.138 35.3013 544.885 35.022 549.061 35.022V34.022C544.899 34.022 541.982 34.2933 540.392 34.8788L540.738 35.8172Z" fill="#39A3F2"/>
<path d="M150.498 96.9106H135.158V59.2686H122.06V96.9106H106.72V14.3106H122.06V46.2886H135.158V14.3106H150.498V96.9106ZM185.446 59.0326V50.8906C185.446 47.7439 184.109 46.1706 181.434 46.1706C178.917 46.1706 177.658 47.7046 177.658 50.7726V59.0326H185.446ZM199.606 75.6706V83.8126C199.606 87.9032 197.915 91.2859 194.532 93.9606C191.228 96.5566 186.823 97.8546 181.316 97.8546C175.81 97.8546 171.444 96.3993 168.218 93.4886C165.072 90.5779 163.498 86.8412 163.498 82.2786V50.0646C163.498 44.9512 165.268 41.1359 168.808 38.6186C172.427 36.1012 176.557 34.8426 181.198 34.8426C184.66 34.8426 187.649 35.3539 190.166 36.3766C192.762 37.3992 194.69 38.7366 195.948 40.3886C197.207 41.9619 198.112 43.5746 198.662 45.2266C199.292 46.7999 199.606 48.3339 199.606 49.8286V70.0066H177.658V81.2166C177.658 83.1832 177.894 84.5992 178.366 85.4646C178.838 86.2512 179.861 86.6446 181.434 86.6446C184.109 86.6446 185.446 84.8352 185.446 81.2166V75.6706H199.606ZM226.744 96.9106H212.584V14.3106H226.744V96.9106ZM254.497 96.9106H240.337V14.3106H254.497V96.9106ZM303.608 49.8286V84.1666C303.608 88.0999 301.877 91.3646 298.416 93.9606C295.033 96.5566 290.864 97.8546 285.908 97.8546C280.716 97.8546 276.35 96.5566 272.81 93.9606C269.27 91.3646 267.5 88.0606 267.5 84.0486V49.7106C267.5 44.9119 269.27 41.2539 272.81 38.7366C276.35 36.1406 280.676 34.8426 285.79 34.8426C291.139 34.8426 295.426 36.2979 298.652 39.2086C301.956 42.1192 303.608 45.6592 303.608 49.8286ZM289.448 81.8066V50.8906C289.448 47.7439 288.15 46.1706 285.554 46.1706C282.958 46.1706 281.66 47.7439 281.66 50.8906V81.8066C281.66 83.4586 281.896 84.6779 282.368 85.4646C282.918 86.2512 283.98 86.6446 285.554 86.6446C288.15 86.6446 289.448 85.0319 289.448 81.8066Z" fill="#39A3F2"/>
<path d="M150.498 96.9106V97.4106H150.998V96.9106H150.498ZM135.158 96.9106H134.658V97.4106H135.158V96.9106ZM135.158 59.2686H135.658V58.7686H135.158V59.2686ZM122.06 59.2686V58.7686H121.56V59.2686H122.06ZM122.06 96.9106V97.4106H122.56V96.9106H122.06ZM106.72 96.9106H106.22V97.4106H106.72V96.9106ZM106.72 14.3106V13.8106H106.22V14.3106H106.72ZM122.06 14.3106H122.56V13.8106H122.06V14.3106ZM122.06 46.2886H121.56V46.7886H122.06V46.2886ZM135.158 46.2886V46.7886H135.658V46.2886H135.158ZM135.158 14.3106V13.8106H134.658V14.3106H135.158ZM150.498 14.3106H150.998V13.8106H150.498V14.3106ZM150.498 96.4106H135.158V97.4106H150.498V96.4106ZM135.658 96.9106V59.2686H134.658V96.9106H135.658ZM135.158 58.7686H122.06V59.7686H135.158V58.7686ZM121.56 59.2686V96.9106H122.56V59.2686H121.56ZM122.06 96.4106H106.72V97.4106H122.06V96.4106ZM107.22 96.9106V14.3106H106.22V96.9106H107.22ZM106.72 14.8106H122.06V13.8106H106.72V14.8106ZM121.56 14.3106V46.2886H122.56V14.3106H121.56ZM122.06 46.7886H135.158V45.7886H122.06V46.7886ZM135.658 46.2886V14.3106H134.658V46.2886H135.658ZM135.158 14.8106H150.498V13.8106H135.158V14.8106ZM149.998 14.3106V96.9106H150.998V14.3106H149.998ZM185.446 59.0326V59.5326H185.946V59.0326H185.446ZM177.658 59.0326H177.158V59.5326H177.658V59.0326ZM199.606 75.6706H200.106V75.1706H199.606V75.6706ZM194.532 93.9606L194.841 94.3537L194.842 94.3528L194.532 93.9606ZM168.218 93.4886L167.879 93.8557L167.883 93.8598L168.218 93.4886ZM168.808 38.6186L168.523 38.2081L168.519 38.2111L168.808 38.6186ZM190.166 36.3766L189.978 36.8398L189.983 36.8418L190.166 36.3766ZM195.948 40.3886L195.55 40.6917L195.558 40.7009L195.948 40.3886ZM198.662 45.2266L198.188 45.3847L198.193 45.3986L198.198 45.4123L198.662 45.2266ZM199.606 70.0066V70.5066H200.106V70.0066H199.606ZM177.658 70.0066V69.5066H177.158V70.0066H177.658ZM178.366 85.4646L177.927 85.704L177.932 85.713L177.938 85.7218L178.366 85.4646ZM185.446 75.6706V75.1706H184.946V75.6706H185.446ZM185.946 59.0326V50.8906H184.946V59.0326H185.946ZM185.946 50.8906C185.946 49.2582 185.601 47.9407 184.824 47.0268C184.034 46.0972 182.872 45.6706 181.434 45.6706V46.6706C182.671 46.6706 183.515 47.0306 184.062 47.6744C184.623 48.3338 184.946 49.3763 184.946 50.8906H185.946ZM181.434 45.6706C180.07 45.6706 178.965 46.0912 178.216 47.0039C177.482 47.8977 177.158 49.1829 177.158 50.7726H178.158C178.158 49.2943 178.464 48.2784 178.989 47.6382C179.499 47.017 180.282 46.6706 181.434 46.6706V45.6706ZM177.158 50.7726V59.0326H178.158V50.7726H177.158ZM177.658 59.5326H185.446V58.5326H177.658V59.5326ZM199.106 75.6706V83.8126H200.106V75.6706H199.106ZM199.106 83.8126C199.106 87.741 197.492 90.9826 194.222 93.5684L194.842 94.3528C198.337 91.5892 200.106 88.0655 200.106 83.8126H199.106ZM194.223 93.5674C191.031 96.0753 186.746 97.3546 181.316 97.3546V98.3546C186.9 98.3546 191.425 97.0378 194.841 94.3537L194.223 93.5674ZM181.316 97.3546C175.899 97.3546 171.664 95.9247 168.553 93.1174L167.883 93.8598C171.223 96.8738 175.72 98.3546 181.316 98.3546V97.3546ZM168.558 93.1215C165.521 90.3121 163.998 86.712 163.998 82.2786H162.998C162.998 86.9705 164.623 90.8437 167.879 93.8556L168.558 93.1215ZM163.998 82.2786V50.0646H162.998V82.2786H163.998ZM163.998 50.0646C163.998 45.0803 165.715 41.4321 169.098 39.0261L168.519 38.2111C164.822 40.8397 162.998 44.8221 162.998 50.0646H163.998ZM169.094 39.029C172.624 36.5732 176.653 35.3426 181.198 35.3426V34.3426C176.461 34.3426 172.23 35.6293 168.523 38.2081L169.094 39.029ZM181.198 35.3426C184.612 35.3426 187.534 35.8471 189.978 36.8398L190.354 35.9133C187.763 34.8607 184.707 34.3426 181.198 34.3426V35.3426ZM189.983 36.8418C192.522 37.8421 194.363 39.1331 195.551 40.6916L196.346 40.0856C195.016 38.3401 193.002 36.9564 190.35 35.9114L189.983 36.8418ZM195.558 40.7009C196.785 42.2353 197.659 43.7967 198.188 45.3847L199.137 45.0685C198.565 43.3525 197.629 41.6885 196.339 40.0762L195.558 40.7009ZM198.198 45.4123C198.807 46.9344 199.106 48.4055 199.106 49.8286H200.106C200.106 48.2624 199.776 46.6654 199.127 45.0409L198.198 45.4123ZM199.106 49.8286V70.0066H200.106V49.8286H199.106ZM199.606 69.5066H177.658V70.5066H199.606V69.5066ZM177.158 70.0066V81.2166H178.158V70.0066H177.158ZM177.158 81.2166C177.158 83.1992 177.392 84.7227 177.927 85.704L178.805 85.2252C178.396 84.4758 178.158 83.1673 178.158 81.2166H177.158ZM177.938 85.7218C178.55 86.7433 179.813 87.1446 181.434 87.1446V86.1446C179.909 86.1446 179.126 85.7592 178.795 85.2073L177.938 85.7218ZM181.434 87.1446C182.896 87.1446 184.064 86.642 184.845 85.5848C185.606 84.5559 185.946 83.0729 185.946 81.2166H184.946C184.946 82.979 184.618 84.21 184.041 84.9904C183.485 85.7425 182.647 86.1446 181.434 86.1446V87.1446ZM185.946 81.2166V75.6706H184.946V81.2166H185.946ZM185.446 76.1706H199.606V75.1706H185.446V76.1706ZM226.744 96.9106V97.4106H227.244V96.9106H226.744ZM212.584 96.9106H212.084V97.4106H212.584V96.9106ZM212.584 14.3106V13.8106H212.084V14.3106H212.584ZM226.744 14.3106H227.244V13.8106H226.744V14.3106ZM226.744 96.4106H212.584V97.4106H226.744V96.4106ZM213.084 96.9106V14.3106H212.084V96.9106H213.084ZM212.584 14.8106H226.744V13.8106H212.584V14.8106ZM226.244 14.3106V96.9106H227.244V14.3106H226.244ZM254.497 96.9106V97.4106H254.997V96.9106H254.497ZM240.337 96.9106H239.837V97.4106H240.337V96.9106ZM240.337 14.3106V13.8106H239.837V14.3106H240.337ZM254.497 14.3106H254.997V13.8106H254.497V14.3106ZM254.497 96.4106H240.337V97.4106H254.497V96.4106ZM240.837 96.9106V14.3106H239.837V96.9106H240.837ZM240.337 14.8106H254.497V13.8106H240.337V14.8106ZM253.997 14.3106V96.9106H254.997V14.3106H253.997ZM298.416 93.9606L298.116 93.5606L298.111 93.5639L298.416 93.9606ZM272.81 93.9606L273.105 93.5574L272.81 93.9606ZM272.81 38.7366L273.099 39.1441L273.105 39.1398L272.81 38.7366ZM298.652 39.2086L298.317 39.5798L298.321 39.5838L298.652 39.2086ZM282.368 85.4646L281.939 85.7218L281.948 85.7369L281.958 85.7513L282.368 85.4646ZM303.108 49.8286V84.1666H304.108V49.8286H303.108ZM303.108 84.1666C303.108 87.9252 301.466 91.0481 298.116 93.5606L298.716 94.3606C302.288 91.6811 304.108 88.2746 304.108 84.1666H303.108ZM298.111 93.5639C294.83 96.0824 290.772 97.3546 285.908 97.3546V98.3546C290.955 98.3546 295.236 97.0308 298.72 94.3572L298.111 93.5639ZM285.908 97.3546C280.802 97.3546 276.545 96.0796 273.105 93.5574L272.514 94.3638C276.155 97.0336 280.629 98.3546 285.908 98.3546V97.3546ZM273.105 93.5574C269.68 91.0453 268 87.8847 268 84.0486H267C267 88.2365 268.86 91.6839 272.514 94.3638L273.105 93.5574ZM268 84.0486V49.7106H267V84.0486H268ZM268 49.7106C268 45.054 269.707 41.5567 273.099 39.1441L272.52 38.3291C268.833 40.9511 267 44.7698 267 49.7106H268ZM273.105 39.1398C276.546 36.6166 280.764 35.3426 285.79 35.3426V34.3426C280.588 34.3426 276.153 35.6645 272.514 38.3334L273.105 39.1398ZM285.79 35.3426C291.045 35.3426 295.203 36.7701 298.317 39.5798L298.987 38.8374C295.649 35.8257 291.233 34.3426 285.79 34.3426V35.3426ZM298.321 39.5838C301.524 42.4055 303.108 45.8117 303.108 49.8286H304.108C304.108 45.5068 302.387 41.8329 298.982 38.8334L298.321 39.5838ZM289.948 81.8066V50.8906H288.948V81.8066H289.948ZM289.948 50.8906C289.948 49.2611 289.613 47.946 288.86 47.0324C288.091 46.1004 286.957 45.6706 285.554 45.6706V46.6706C286.746 46.6706 287.559 47.0274 288.088 47.6688C288.633 48.3285 288.948 49.3734 288.948 50.8906H289.948ZM285.554 45.6706C284.15 45.6706 283.016 46.1004 282.247 47.0324C281.494 47.946 281.16 49.2611 281.16 50.8906H282.16C282.16 49.3734 282.474 48.3285 283.019 47.6688C283.548 47.0274 284.361 46.6706 285.554 46.6706V45.6706ZM281.16 50.8906V81.8066H282.16V50.8906H281.16ZM281.16 81.8066C281.16 83.4868 281.396 84.8173 281.939 85.7218L282.796 85.2073C282.395 84.5385 282.16 83.4304 282.16 81.8066H281.16ZM281.958 85.7513C282.65 86.7393 283.922 87.1446 285.554 87.1446V86.1446C284.038 86.1446 283.187 85.7632 282.777 85.1778L281.958 85.7513ZM285.554 87.1446C286.961 87.1446 288.096 86.7021 288.864 85.7486C289.614 84.8158 289.948 83.4732 289.948 81.8066H288.948C288.948 83.3653 288.632 84.4417 288.085 85.1216C287.554 85.7807 286.742 86.1446 285.554 86.1446V87.1446Z" fill="#39A3F2"/>
<path d="M50.0638 31.7631C50.0638 23.0855 50.1923 14.3976 50.0045 5.73017C49.9155 1.38621 51.1414 1.24278 54.4334 3.23034C66.7216 10.6274 75.5299 20.5037 76.8645 35.8919C77.6158 44.6311 75.1542 52.694 71.6942 60.5111C70.7846 62.5601 69.2622 62.9904 67.3048 62.9597C62.8759 62.888 58.4273 62.7958 54.0083 62.9904C50.9733 63.1236 49.9847 61.8737 50.0242 58.8207C50.1429 49.7947 50.0737 40.7789 50.0638 31.7631Z" fill="#39A3F2"/>
<path d="M6.86024 76.7501C6.85024 68.7901 6.96025 60.8301 6.80025 52.8701C6.74025 49.8201 7.80024 48.7501 10.8202 48.8801C15.1202 49.0701 19.4402 49.0101 23.7502 48.9001C26.1702 48.8401 27.4402 49.5201 27.4302 52.2201C27.3602 68.8001 27.5302 85.3901 27.3002 101.97C27.2202 107.95 24.1102 109.86 16.4502 109.75C9.81024 109.66 7.06024 107.5 6.92024 101.62C6.72024 93.3401 6.86024 85.0401 6.86024 76.7501Z" fill="#39A3F2"/>
<path d="M33.9901 21.9501C33.9801 26.9301 33.92 31.9201 34.01 36.9001C34.07 40.3701 32.68 42.1601 29.03 42.1301C21.06 42.0501 13.08 42.0801 5.11005 42.1201C1.54005 42.1401 -0.00995194 40.3901 4.80618e-05 36.9101C0.0300481 26.9401 -0.00994767 16.9701 0.0200523 7.01012C0.0300523 4.58012 0.310048 2.03012 3.50005 2.00012C6.80005 1.98012 6.85005 4.57011 6.85005 6.99011C6.85005 15.1301 6.88004 23.2701 6.84004 31.4101C6.83004 33.6101 7.01005 35.2601 9.94005 35.3001C12.7901 35.3401 13.7301 34.2401 13.6901 31.4901C13.59 23.5201 13.64 15.5401 13.67 7.57011C13.68 5.06011 13.54 2.08011 17.06 2.02011C20.65 1.96011 20.49 4.95011 20.5 7.46011C20.53 15.1001 20.52 22.7401 20.51 30.3901C20.51 32.8901 20.06 35.4001 24.07 35.3301C28.2 35.2601 27.41 32.5101 27.42 30.1601C27.47 23.0201 27.3401 15.8701 27.4901 8.73011C27.5401 6.17011 26.25 2.17011 30.56 2.14011C35.19 2.10011 33.8201 6.29011 33.9401 9.00011C34.1401 13.3101 34.0001 17.6301 33.9901 21.9501Z" fill="#39A3F2"/>
<path d="M70.6146 87.6109C70.6046 92.4109 70.7746 97.2309 70.5646 102.021C70.3146 107.821 67.6146 109.921 60.9046 110.001C53.3146 110.091 50.3346 108.141 50.1746 102.101C49.9146 92.3309 50.1246 82.5509 50.0746 72.7809C50.0546 70.2309 51.1646 69.2409 53.6746 69.3009C58.1446 69.4009 62.6246 69.4509 67.0946 69.2809C70.0546 69.1709 70.7446 70.5609 70.6746 73.1909C70.5246 77.9909 70.6146 82.8009 70.6146 87.6109Z" fill="#39A3F2"/>
</svg>
